<svg xmlns="http://www.w3.org/2000/svg" xml:space="preserve" viewBox="0 0 3710 3710"><path d="M0 0h3710v3710H0z" style="fill:#fff"/><linearGradient id="a" x1="3669.9" x2="1469.4" y1="3566.1" y2="1592.1" gradientUnits="userSpaceOnUse"><stop offset="0" style="stop-color:#dae3fe"/><stop offset="1" style="stop-color:#e9effd"/></linearGradient><path d="M2936.6 2882.8c-74.1 76.4-89.7 87.4-140.5 121.4-495.4 330.8-1212.3 250.8-1387.4 218.2-282.5-52.5-421.3-71.1-626.1-256.2-465.6-420.6-443-1298.1-87.2-1841.6C737.6 1060 1086.6 560 1654 485.8c14-1.8 671.5-88.6 1115.1 283.1a1324 1324 0 0 1 260.5 295.5c346.5 535.2 347.6 1364.1-93 1818.4" style="fill:url(#a)"/><path d="M3058.2 762.2c3.6-12.3 21-12.7 25.2-.6 43 122.8 122.2 464.5-143.2 851.8-333 486-323.4 731.5-248.9 917 0 0-156.5-150.4-172.8-403-40.2-620 477-1146.2 539.7-1365.2" style="fill:#91b3fa"/><path d="M3038 957.5a3522 3522 0 0 1-137 372 3231 3231 0 0 1-84.6 178.9c-30 58.8-62.6 116.2-95.4 173.7-32.5 57.6-65.6 115.5-92.9 177a671 671 0 0 0-55.3 194.2q-3.1 25.3-4.2 50.5-1.3 25.3-1 50.5.5 50.8 8.2 100.9a721 721 0 0 0 59.5 192.7 12.8 12.8 0 0 0 23.3-10.5q-9.9-22.4-18.4-45.3-4.4-11.4-8.3-23c-2.4-7.7-5.2-15.4-7.4-23.2a674 674 0 0 1-21.1-94.9c-9.8-64-10-130-2.7-194.3q6-48.2 19.2-95 13.4-46.8 33-91.7c26-60 58.4-117.5 90.4-175.4s63.8-116.4 93.2-176a2779 2779 0 0 0 42.6-90.2q10.3-22.7 20.2-45.6l19.2-46a3206 3206 0 0 0 69.4-186.7c20.8-63 40-126.5 56.7-190.7a3.4 3.4 0 0 0-2.5-4.2 3.4 3.4 0 0 0-4 2.3" style="fill:#bdd0fb"/><path d="M2456.7 2079a33.2 33.2 0 0 1-54.3-9.8 1014 1014 0 0 1 35.2-869.8C2611 861.5 2673 661.9 2694.8 569.3a20.8 20.8 0 0 1 39.5-3.4c87.3 204 316 897.3-277.6 1513.2" style="fill:#bdd0fb"/><linearGradient id="b" x1="2416.7" x2="2672" y1="1527.5" y2="1527.5" gradientUnits="userSpaceOnUse"><stop offset="0" style="stop-color:#dae3fe"/><stop offset="1" style="stop-color:#e9effd"/></linearGradient><path d="m2427.4 2066.2-1.7.2a9 9 0 0 1-9-9.5c.1-5.8 17.8-582.3 237.7-1063a9 9 0 0 1 12.2-4.5 9 9 0 0 1 4.6 12.2c-218.3 477.1-236 1050-236 1055.8a9 9 0 0 1-7.8 8.8" style="fill:url(#b)"/><linearGradient id="c" x1="-945.4" x2="-372.5" y1="2885.1" y2="1166.3" gradientTransform="matrix(-1 0 0 1 1155.8 0)" gradientUnits="userSpaceOnUse"><stop offset="0" style="stop-color:#09005d"/><stop offset="1" style="stop-color:#1a0f91"/></linearGradient><path d="M621.8 2947.4a45 45 0 0 0 44.9 44.8h2425.8a45 45 0 0 0 44.8-44.8l20.2-1394c0-24.7-29-72.8-82.2-69.2L704.5 1423a113 113 0 0 0-82.8 33 113 113 0 0 0-33.2 82.6z" style="fill:url(#c)"/><linearGradient id="d" x1="595.5" x2="3150.3" y1="2902.1" y2="1515.6" gradientUnits="userSpaceOnUse"><stop offset="0" style="stop-color:#ff928e"/><stop offset="1" style="stop-color:#fe7062"/></linearGradient><path d="M666.1 2904.4a42.6 42.6 0 0 0 42.5 42.5H3034a42.6 42.6 0 0 0 42.4-42.5l19-1265.5c-2.2-76.2-69-103.5-109.4-102L713.8 1476a79 79 0 0 0-58.1 23.2 79 79 0 0 0-23.4 58.1z" style="fill:url(#d)"/><g style="opacity:.6"><path d="M3051.3 2303.2za6 6 0 0 1-6.1-6.3l1.5-102.6a6 6 0 0 1 6.2-6.2 6 6 0 0 1 6.2 6.3l-1.5 102.7a6 6 0 0 1-6.2 6.1m3.7-251.5h-.1a6 6 0 0 1-6.1-6.3l5.7-393q-.2-35.2-21-55.4c-26-24.8-67-23.5-68.8-23.4l-726.2-19.5a6 6 0 0 1-6-6.4c0-3.4 2.7-6.3 6.3-6l725.8 19.4c4.6-.2 48.3-1 77.5 27q24.7 23.7 24.9 64.3l-5.8 393.2a6 6 0 0 1-6.2 6.1" style="fill:#fff"/></g><linearGradient id="e" x1="388.2" x2="-2164.1" y1="2782.2" y2="3403" gradientTransform="matrix(-1 0 0 1 1155.8 0)" gradientUnits="userSpaceOnUse"><stop offset="0" style="stop-color:#09005d"/><stop offset="1" style="stop-color:#1a0f91"/></linearGradient><path d="M430.7 3108h2848.6c3.1 0 5.7-2.6 5.7-5.7V2991c0-3-2.6-5.6-5.7-5.6H430.7a5.7 5.7 0 0 0-5.7 5.6v111.2c0 3.1 2.6 5.6 5.7 5.6" style="fill:url(#e)"/><path d="m2215.2 819-1439.4-8.7a82.4 82.4 0 0 0-82.8 86.4l99 2045h1601.8l88.9-1827z" style="fill:#91b3fa"/><linearGradient id="f" x1="2612.3" x2="3214.6" y1="681.8" y2="32.8" gradientUnits="userSpaceOnUse"><stop offset="0" style="stop-color:#4f52ff"/><stop offset="1" style="stop-color:#4042e2"/></linearGradient><path d="M2275 1105.9c-46.9-1.7-83-42-79.2-88.9l15.4-195.2 271.8 291.6z" style="fill:url(#f)"/><path d="M1452.4 1209.4c129.2-.2 625.3-1.8 750.5-2.2 15.8 0 28.4 15 27.7 33.3-.6 17.4-13 31.2-28 31.4l-750.2 6.4c-14.4 0-26.5-12.5-27.7-29.2l-.4-4.2c-1.4-19 11.6-35.5 28.1-35.5m-5.9 143.5c129.2-.2 625.3-1.8 750.5-2.2 15.8 0 28.4 15 27.7 33.3-.6 17.3-13 31.2-28 31.3l-750.2 6.4c-14.4.1-26.4-12.5-27.7-29.1l-.4-4.2c-1.4-19 11.6-35.5 28.1-35.5m-448 204.4c199.5.1 965.5-.1 1159-.2 24.4 0 44.2 15.1 43.8 33.4-.5 17.3-19.2 31.2-42.4 31.3l-1158.4 4.4c-22.3 0-41.3-12.6-43.8-29.2l-.6-4.2c-2.8-19 16.8-35.5 42.3-35.5m-9.2 150.5c155.3-.6 751.6-4 902.2-4.9a33 33 0 0 1 33.9 33.2 33 33 0 0 1-33.2 31.5l-901.8 9c-17.3.3-32-12.3-33.8-29l-.5-4.1c-2-19 13.3-35.6 33.2-35.7m7.3 197.2 1159-.2c24.4 0 44.2 15 43.8 33.3-.4 17.4-19.1 31.2-42.4 31.3l-1158.4 4.4c-22.3.1-41.3-12.5-43.7-29.2l-.7-4.2c-2.8-19 16.8-35.5 42.4-35.4M979 2058c156 .3 755.2.6 906.5.6 19 0 34.4 15.2 33.8 33.4a33 33 0 0 1-33.5 31.3l-906 3.6a33.4 33.4 0 0 1-34-29.3l-.4-4.2c-2-19 13.6-35.4 33.6-35.4m7.5 201.7c199.6.2 965.6-.1 1159-.2 24.5 0 44.3 15.1 43.9 33.4-.5 17.4-19.2 31.2-42.4 31.3l-1158.4 4.4c-22.3 0-41.3-12.6-43.8-29.2l-.6-4.2c-2.8-19 16.8-35.5 42.3-35.5m-12 151.3 906.5.6c19 0 34.3 15.1 33.8 33.4a33 33 0 0 1-33.6 31.2l-906 3.6a33.4 33.4 0 0 1-33.9-29.2l-.4-4.2c-2-19 13.6-35.5 33.6-35.4m23.8 199.3c199.6.2 965.6 0 1159.1-.2 24.4 0 44.2 15.1 43.8 33.4-.5 17.4-19.2 31.2-42.4 31.3l-1158.4 4.4c-22.3.1-41.3-12.6-43.8-29.2l-.6-4.2c-2.8-19 16.8-35.5 42.3-35.5M987.1 2778c154.1 0 745.7-.8 895-1 19 0 34 15 33.5 33.3a33 33 0 0 1-33 31.4l-894.7 5.1a33 33 0 0 1-33.4-29.1l-.5-4.2c-2-19 13.4-35.5 33.1-35.5" style="opacity:.78;fill:#fff"/><g style="opacity:.78"><path d="m1142 1118.4-81.1 298.6-22-.4-143-366.3q-10-26-20-31-10.3-5-55.7-6.7v-5.7l222.6 8v5.7q-39.5-1.5-54.7 2t-15.3 15.4q0 6.1 4 15l101.5 263 58.5-213.2-13.6-44.6q-7.8-25-18.8-30.5-11-5.3-56.5-7v-5.5l218.9 7.9v5.5q-38.5-1.4-53.4 2-14.8 3.6-14.8 16.5 0 6.7 2.5 13.6l81.7 260.3 69.3-188.5q10.5-29.7 10.5-48.6.1-51.9-75.4-54.6v-5.5l161.5 5.9v5.4q-44.2-1.5-65.4 42.2-3.1 6.6-23.2 59l-103.2 284-20.9-.4z" style="fill:#fff"/></g><linearGradient id="g" x1="-2544.8" x2="-2378.2" y1="2942.3" y2="2942.3" gradientTransform="matrix(-1 0 0 1 83 0)" gradientUnits="userSpaceOnUse"><stop offset="0" style="stop-color:#4f52ff"/><stop offset="1" style="stop-color:#4042e2"/></linearGradient><path d="M2466 2934.2c28.5 2.5 78 6.5 117 8.2 23.6 1 37-1.2 44.9-4.4l-.1 2.5a8 8 0 0 1-7.7 7.6 1372 1372 0 0 1-153.3.2c-4.4-.3-7-5-4.7-8.6q1.6-2.8 3.9-5.5" style="fill:url(#g)"/><linearGradient id="h" x1="-2544.9" x2="-2383" y1="2909.6" y2="2909.6" gradientTransform="matrix(-1 0 0 1 83 0)" gradientUnits="userSpaceOnUse"><stop offset="0" style="stop-color:#09005d"/><stop offset="1" style="stop-color:#1a0f91"/></linearGradient><path d="M2583 2942.4c-39-1.7-88.5-5.7-117-8.2 28-34.4 117-57.6 117-57.6h25.2c17.3 25 19.8 48.7 19.7 61.4-7.8 3.2-21.3 5.5-44.8 4.4" style="fill:url(#h)"/><linearGradient id="i" x1="2634.5" x2="2940.9" y1="2825.9" y2="2593.9" gradientUnits="userSpaceOnUse"><stop offset="0" style="stop-color:#febbba"/><stop offset="1" style="stop-color:#ff928e"/></linearGradient><path d="m2612.5 2835.5-2.4 46.6c-.2 5-4 9.3-9 10s-11.8.8-19-1.5a13 13 0 0 1-8.4-9.7l-8.2-45.4z" style="fill:url(#i)"/><linearGradient id="j" x1="-2877" x2="-2813.1" y1="2938.7" y2="2938.7" gradientTransform="matrix(-1 0 0 1 83 0)" gradientUnits="userSpaceOnUse"><stop offset="0" style="stop-color:#4f52ff"/><stop offset="1" style="stop-color:#4042e2"/></linearGradient><path d="M2939.2 2942c12.4-1.7 18-8 20.3-15v.2c1.9 7.3-2.3 14.8-10.8 18.4a71 71 0 0 1-30 4.7 30 30 0 0 1-22.5-10.4v-.1c9.3 4.6 22.4 5.2 43 2.3" style="fill:url(#j)"/><linearGradient id="k" x1="-2876.5" x2="-2782.8" y1="2889.5" y2="2889.5" gradientTransform="matrix(-1 0 0 1 83 0)" gradientUnits="userSpaceOnUse"><stop offset="0" style="stop-color:#09005d"/><stop offset="1" style="stop-color:#1a0f91"/></linearGradient><path d="M2880.8 2835.2h20.8c31.6-.6 51.4 66 58 91.8-2.4 7-8 13.3-20.4 15-20.6 3-33.7 2.4-43-2.2-17.1-22.5-25.6-55.4-29.7-74.6a26 26 0 0 1 14.3-30" style="fill:url(#k)"/><linearGradient id="l" x1="2907.2" x2="3182.4" y1="2807" y2="2606.2" gradientUnits="userSpaceOnUse"><stop offset="0" style="stop-color:#febbba"/><stop offset="1" style="stop-color:#ff928e"/></linearGradient><path d="m2899 2792 11.4 45.8a12.4 12.4 0 0 1-6.4 14.1 44 44 0 0 1-23.9 5.8c-4-.5-7.2-3.2-8.5-7l-16.9-48.1z" style="fill:url(#l)"/><linearGradient id="m" x1="3211.7" x2="2780.7" y1="1511" y2="2336.6" gradientUnits="userSpaceOnUse"><stop offset="0" style="stop-color:#4f52ff"/><stop offset="1" style="stop-color:#4042e2"/></linearGradient><path d="M2912.7 2805.2c-14.4 12.8-61 14.4-61 14.4-167.9-403-236.6-460.2-236.6-460.2 24.3 152 4 488.9 4 488.9-27.8 12.2-63.5 0-63.5 0-2.3-249-40.5-466.3-85.8-637.5 113.5-2.5 173.9-41.4 193.6-57 94.6 152.6 249.3 651.4 249.3 651.4" style="fill:url(#m)"/><linearGradient id="n" x1="-2122.5" x2="-3408.2" y1="1654.2" y2="2772.4" gradientTransform="matrix(-1 0 0 1 83 0)" gradientUnits="userSpaceOnUse"><stop offset="0" style="stop-color:#4f52ff"/><stop offset="1" style="stop-color:#4042e2"/></linearGradient><path d="M2634.6 1690.4c21.4 107.1 13.8 298.9 8.7 386.4-1.4 24.6 15.7 58.6 29.6 81.9a7.3 7.3 0 0 1-3 10.3c-23.2 11.9-101.8 48.9-193 53.5a13 13 0 0 1-13.1-9.7c-67.7-252.6-146.2-414-146.2-414 86.7-138.5 317-108.4 317-108.4" style="fill:url(#n)"/><linearGradient id="o" x1="-2638.8" x2="-2611.9" y1="2617.2" y2="2563.5" gradientTransform="matrix(-1 0 0 1 83 0)" gradientUnits="userSpaceOnUse"><stop offset="0" style="stop-color:#53d8ff"/><stop offset="1" style="stop-color:#3840f7"/></linearGradient><path d="M2603.7 2349.8a5.4 5.4 0 0 0 4.5-8.1c-.9-1.5-22.6-36.6-66.5-57.8a5.4 5.4 0 0 0-7.2 2.5 5.4 5.4 0 0 0 2.5 7.1c41 19.8 61.8 53.4 62 53.7a5 5 0 0 0 4.7 2.6" style="fill:url(#o)"/><linearGradient id="p" x1="-2749.5" x2="-2949.1" y1="2165.6" y2="2342.4" gradientTransform="matrix(-1 0 0 1 83 0)" gradientUnits="userSpaceOnUse"><stop offset="0" style="stop-color:#febbba"/><stop offset="1" style="stop-color:#ff928e"/></linearGradient><path d="M2769.3 1997.9c-6.9 50-27.3 104.4-68 162.2l-15.6-12.7s18-72.6 7.8-155c25.1-4.9 54.8.2 75.8 5.5" style="fill:url(#p)"/><linearGradient id="q" x1="-2229.7" x2="-3509.6" y1="1535.7" y2="2648.9" gradientTransform="matrix(-1 0 0 1 83 0)" gradientUnits="userSpaceOnUse"><stop offset="0" style="stop-color:#4f52ff"/><stop offset="1" style="stop-color:#4042e2"/></linearGradient><path d="m2610.6 1822.6 24-132.2s160.3 122.5 134.7 307.5c-21-5.3-50.7-10.4-75.8-5.5-7.4-59.3-29.3-123.8-83-169.8" style="fill:url(#q)"/><linearGradient id="r" x1="-2028.5" x2="-3308.4" y1="1767" y2="2880.2" gradientTransform="matrix(-1 0 0 1 83 0)" gradientUnits="userSpaceOnUse"><stop offset="0" style="stop-color:#4f52ff"/><stop offset="1" style="stop-color:#4042e2"/></linearGradient><path d="m2317.6 1798.8 61.8 133.3c-10 80.4-53.2 115.2-99.8 128.6-2.9-36.7-12.2-66.3-20.8-86.8 59.6-61.5 58.8-175.1 58.8-175.1" style="fill:url(#r)"/><linearGradient id="s" x1="-2196.6" x2="-2039.4" y1="2024.2" y2="2024.2" gradientTransform="matrix(-1 0 0 1 83 0)" gradientUnits="userSpaceOnUse"><stop offset="0" style="stop-color:#febbba"/><stop offset="1" style="stop-color:#ff928e"/></linearGradient><path d="M2258.8 1973.9a283 283 0 0 1 20.8 86.8c-124.3 48.2-157.2-45.4-157.2-45.4l23-4c51.9 5.5 88.1-11.3 113.4-37.4" style="fill:url(#s)"/><linearGradient id="t" x1="-2349.4" x2="-2351.1" y1="1604" y2="1897.6" gradientTransform="matrix(-1 0 0 1 83 0)" gradientUnits="userSpaceOnUse"><stop offset="0" style="stop-color:#febbba"/><stop offset="1" style="stop-color:#ff928e"/></linearGradient><path d="m2374.6 1634.3 29.8 109.8a21.4 21.4 0 0 0 28.6 14.2c12.8-5.1 29-12.1 43-19.7 15-8 19.7-27.2 10.2-41.3l-62-92.6z" style="fill:url(#t)"/><linearGradient id="u" x1="-2527.2" x2="-2671.7" y1="2703.6" y2="2894.8" gradientTransform="scale(-1 1)rotate(-8.2 -10428.6 806.6)" gradientUnits="userSpaceOnUse"><stop offset="0" style="stop-color:#febbba"/><stop offset="1" style="stop-color:#ff928e"/></linearGradient><path d="M2309.2 1550.8c-.3 2 25 125.4 25 125.4l70.1-16-6.5-120.5s-84-20.4-88.6 11.1" style="fill:url(#u)"/><linearGradient id="v" x1="-2637.6" x2="-2464.9" y1="2749.7" y2="2749.7" gradientTransform="scale(-1 1)rotate(-8.2 -10428.6 806.6)" gradientUnits="userSpaceOnUse"><stop offset="0" style="stop-color:#09005d"/><stop offset="1" style="stop-color:#1a0f91"/></linearGradient><path d="m2382 1566.6 8.4 63.2v2.4c-.7 5-4.4 21.8-21.4 17-15.4-4.4-29.6-8.1-39.4-5.1a9 9 0 0 0-6.1 10.2c2.3 11.3 8 36.4 16.1 57.6a9 9 0 0 0 10.8 5.2 287 287 0 0 0 61.9-25.3 9 9 0 0 0 4.3-8c-.7-16-2.5-64.5-1-78 1.5-12.8 17.2-20.4 24-23.2a9 9 0 0 0 4.9-4.9c3.1-7.9 7.4-26.1-15.6-33.6a9 9 0 0 1-5.6-11.5c3.4-9.5 4.8-24-13-32-18-8.1-31.6 1.5-38.9 9.4a9 9 0 0 1-11.4 1.3c-2-1.3-4.7-1.7-8 .3a9 9 0 0 1-12.4-3.8 26.6 26.6 0 0 0-30.9-15.4c-31.4 5.4-35 40.3-26.7 60.7s42 12.6 59 2.3c12.9-7.8 29.6.4 36.9 4.8a9 9 0 0 1 4.1 6.4" style="fill:url(#v)"/><linearGradient id="w" x1="-2738.9" x2="-2623" y1="2855" y2="2736.1" gradientTransform="scale(-1 1)rotate(-8.2 -10428.6 806.6)" gradientUnits="userSpaceOnUse"><stop offset="0" style="stop-color:#febbba"/><stop offset="1" style="stop-color:#ff928e"/></linearGradient><path d="M2418.5 1628.8s-13-36.2.3-45 33-4.3 28.6 21.9c-5.3 32.6-29 23-29 23" style="fill:url(#w)"/><linearGradient id="x" x1="-2056.1" x2="-1999.8" y1="2005.7" y2="2005.7" gradientTransform="matrix(-1 0 0 1 83 0)" gradientUnits="userSpaceOnUse"><stop offset="0" style="stop-color:#febbba"/><stop offset="1" style="stop-color:#ff928e"/></linearGradient><path d="M2131.6 2032.5c-6.3 4.8-27.7-5.4-40.8-12.4-6.4-3.5-9.5-11-7.3-17.9 3.1-10 8.4-22.8 14.9-24.4 10.7-2.7 59 34.5 33.2 54.7" style="fill:url(#x)"/><linearGradient id="y" x1="-1428.6" x2="-3803.4" y1="1568.7" y2="3301.1" gradientTransform="matrix(-1 0 0 1 83 0)" gradientUnits="userSpaceOnUse"><stop offset="0" style="stop-color:#09005d"/><stop offset="1" style="stop-color:#1a0f91"/></linearGradient><path d="M3187.3 2334.9 1550 1752.5l-86.6 240.7 1636.7 598.5a76 76 0 0 0 92.2-33.3c19.2-32.9 37.4-84.2 38.5-161.1.4-28-17.1-53-43.5-62.4" style="fill:url(#y)"/><linearGradient id="z" x1="-1345.4" x2="-1032.5" y1="1954.3" y2="1682.4" gradientTransform="matrix(-1 0 0 1 83 0)" gradientUnits="userSpaceOnUse"><stop offset="0" style="stop-color:#09005d"/><stop offset="1" style="stop-color:#1a0f91"/></linearGradient><path d="m1043.5 1690.4 226.2 27.7c-.3 31.1-10.5 71.4-45 117.6L1036 1711.1c-10-6.6-4.3-22.2 7.6-20.7" style="fill:url(#z)"/><linearGradient id="A" x1="-1071.9" x2="-2230.1" y1="1555.2" y2="2745.5" gradientTransform="matrix(-1 0 0 1 83 0)" gradientUnits="userSpaceOnUse"><stop offset="0" style="stop-color:#ff928e"/><stop offset="1" style="stop-color:#fe7062"/></linearGradient><path d="M1550 1752.5c10.4 150.8-86.6 240.7-86.6 240.7l-238.7-157.5c34.5-46.2 44.7-86.5 45-117.6z" style="fill:url(#A)"/><linearGradient id="B" x1="-1778.2" x2="-2823.4" y1="1589.9" y2="2664.1" gradientTransform="matrix(-1 0 0 1 83 0)" gradientUnits="userSpaceOnUse"><stop offset="0" style="stop-color:#4f52ff"/><stop offset="1" style="stop-color:#4042e2"/></linearGradient><path d="M3167 2408.6a5 5 0 0 0 4.5-3.2 5 5 0 0 0-2.9-6.1l-1566.4-553.6c-2.6-.9-5.3.4-6.2 3a5 5 0 0 0 3 6l1566.4 553.7z" style="fill:url(#B)"/><linearGradient id="C" x1="-1751.1" x2="-2796.4" y1="1684.3" y2="2758.5" gradientTransform="matrix(-1 0 0 1 83 0)" gradientUnits="userSpaceOnUse"><stop offset="0" style="stop-color:#4f52ff"/><stop offset="1" style="stop-color:#4042e2"/></linearGradient><path d="M3140 2503a5 5 0 0 0 4.5-3.2 5 5 0 0 0-3-6.1L1575.2 1940a5 5 0 0 0-6.1 3 5 5 0 0 0 3 6l1566.4 553.7z" style="fill:url(#C)"/><linearGradient id="D" x1="-2492" x2="-2691.7" y1="2096.5" y2="2273.3" gradientTransform="matrix(-1 0 0 1 83 0)" gradientUnits="userSpaceOnUse"><stop offset="0" style="stop-color:#febbba"/><stop offset="1" style="stop-color:#ff928e"/></linearGradient><path d="m2692.1 2145.2-72.3-5.9-31.4 29s7.4 10.2 30.6 4.3 55-7.3 55-7.3 32 14.4 32.3-12.6z" style="fill:url(#D)"/></svg>