<svg xmlns="http://www.w3.org/2000/svg" width="200" height="186"><path fill="#BDC2FD" d="M129.5 37.9c1.4-6 3.6-11.8 5.5-17.6q1.6-4.3 2.6-8.6c.3-1.3.5-3.6 1-4.6q.3-.5.8-.7.6 0 1 .2c1.5 1 2.5 3.2 3.3 4.7 4.3 7.6 8 15.9 9.8 24.5a65 65 0 0 1-1.4 32.3h-1.7q1.4.3 2.8.1h1.4q6 .3 12.2.3 4.5.3 8.8.2c2.4 0 5.1-.2 7.5.4a7 7 0 0 1 4.8 5.2c.2 2.5 0 5.6-.2 8l-.3 12-.7 26.5q0 5-.3 9.9l-.1.9q1.6 1 2.5 3c.4 1.4.2 3.5-.5 4.9l-.2.2v.8l-.3.3c.3 1.5-1.4 3.4-1.8 4.8v1.4l-.4 13q.1 3.5 0 7-.1 1-.7 2l-1.1 1.3c1.6 0 8.8-.1 10 .3q.6 0 .8.5c.4.7.3 6.1 0 6.8q-.1.4-.6.6c-1.4.5-9 .1-11 .1H13.3q-4 .1-8 .1c-.5 0-1.7 0-2.1-.3q-.6-.6-.5-1.5c-.1-1-.2-5.3.5-6.1.2-.3.9-.4 1.3-.4h8.8l-.2-.2-.5-.4q-1.5-1.4-1.5-3.5V161l-.3-12.2-1-45.5-.4-21.5c0-3-.4-6.1-.2-9.1q.1-2.6 1.8-4.5a8 8 0 0 1 5.7-2.2q-.4-2.5-.4-5l-.5-9.3L15 39c-.2-2.5-.6-5.5-.4-8q.2-2.4 2.1-4.1 1.4-1.2 3.3-1.3h18.1l35-.1H117q2.5 2.3 4.8 4.7z"/><path fill="#262B7A" d="m13.4 170.4-.2-.2-.5-.4q-1.5-1.4-1.5-3.5V161l-.3-12.2-1-45.5-.4-21.5c0-3-.4-6.1-.2-9.1q.1-2.6 1.8-4.5a8 8 0 0 1 5.7-2.2c.5 2.8.4 5.8.6 8.6l1 17.8 3.2 49.7.9 15.4q0 3.1.3 6.2.4 1.8 1.8 2.9 1.3.9 2.9 1h98q2.3 0 4.8-.2 2-.5 3.1-2.2h2.4c0 .7-.2 2 .2 2.5h.1q1.8.3 3.7.4l.1-.1c.6-.9.5-2 .8-3q.7-4.5 1.1-9 1.3-10 1.6-20l-.1-.8c-2.5-1-5-2.5-7.5-3.4q-.5-.1-.9 0v-.3q-.1-.2-.4-.3l-4.2-2-8.3-3.8-23.5-10.9q-3.8-2-7.8-3.6-4.1-2-8.4-3.9L72 102.1l-8.6-4q-3.7-1.7-7.1-3.6l1.7-1.4.6-.7 2.4-4 .3-.9q1.4-2.7 1.2-5.8l7 2.9q1.6.7 3.4 1.3 4.6 2 9.4 3.8 4.7 2 9.6 3.8 6.3 2.7 12.7 5h.1c.4-.3 10.8-.3 11.8-.1h.3c1.4-.8 2.4-2.3 3.4-3.6q2-4.2 4.6-8c2.1-3.2 4-3.6 7.6-4.2q.2 1.6 1.4 2.7 1.3.8 2.7.6t2.3-1.3q.7-1.2.4-2.4-1.3-2-1.6-4.6l.5-.4c1.4-1.2 1.6-3 1.8-4.7 0-2.2-.6-3-2-4.6l12.6.3h4.2q6 .3 12.2.3 4.5.3 8.8.2c2.4 0 5.1-.2 7.5.4a7 7 0 0 1 4.8 5.2c.2 2.5 0 5.6-.2 8l-.3 12-.7 26.5q0 5-.3 9.9l-.1.9q1.6 1 2.5 3c.4 1.4.2 3.5-.5 4.9l-.2.2v.8l-.3.3c.3 1.5-1.4 3.4-1.8 4.8v1.4l-.4 13q.2 3.5 0 7-.1 1-.7 2l-1.1 1.3c1.6 0 8.8-.1 10 .3q.6 0 .8.5c.4.7.3 6.1 0 6.8q-.2.4-.6.6c-1.4.5-9 .1-11 .1H13.3q-4 .1-8 .1c-.5 0-1.7 0-2.1-.3q-.6-.6-.5-1.5c-.1-1-.2-5.3.5-6.1.2-.3.9-.4 1.3-.4h2.8z"/><path fill="#262B7A" d="m137.8 67.9 12.6.3h4.2q6 .3 12.2.3 4.5.3 8.8.2c2.4 0 5.1-.2 7.5.4a7 7 0 0 1 4.8 5.2c.2 2.5 0 5.6-.2 8l-.3 12-.7 26.5q0 5-.3 9.9l-.1.9q1.6 1 2.5 3c.4 1.4.2 3.5-.5 4.9l-.2.2v-.1q-2-.7-3.6-1.5l-6.5-2.6-22.8-9.4-62.4-25.7-19.6-8q-6-2.6-12-4.9 1.4-2.7 1.2-5.8l7 2.9q1.6.7 3.4 1.3 4.6 2 9.4 3.8 4.7 2 9.6 3.8 6.3 2.7 12.7 5h.1c.4-.3 10.8-.3 11.8-.1h.3c1.4-.8 2.4-2.3 3.4-3.6q2-4.2 4.6-8c2.1-3.2 4-3.6 7.6-4.2q.2 1.6 1.4 2.7 1.3.8 2.7.6t2.3-1.3q.7-1.2.4-2.4-1.3-2-1.6-4.6l.5-.4c1.4-1.2 1.6-3 1.8-4.7 0-2.2-.6-3-2-4.6"/><path fill="#525DD2" d="M139.8 72.5h.1v-.1l7.3.1 17.2.4 8.5.2q3 0 6 .2 1.5.3 2.7 1.5c1.5 1.5 1.6 3.3 1.6 5.3 0 16.5-1 33.1-1.2 49.6q-4.4-1.6-8.7-3.5l-13.2-5.5q-4.4-2-9-3.5l2.4-1.5q3.1-1.9 4.7-5.3c1.8-4 1.6-9.7 0-13.8q-.8-1.9-1.8-3.6c-2-3.3-6.7-8-10.2-9.4-2.3-.8-4.7-1-7-1.4-1.2-1.4-1.4-2.9-1.7-4.6l.5-.4c1.4-1.2 1.6-3 1.8-4.7"/><path fill="#E3C34E" d="M139.1 82.2c2.4.5 4.8.6 7 1.4 3.6 1.3 8.2 6.1 10.3 9.4q1 1.7 1.8 3.6-3.6 1-6.4 3.5 2.5 5 .8 10.2c-.4 1.4-1.2 3.4-2.6 4.1a2 2 0 0 1-1.6.2l-.8-.3-1.1-.5q-1 .6-2 .5l-.3.2q-2.5-1.3-5.3-2.2l-7.3-2.8c-1-4.8-1.3-10-3.4-14.4q-1.2 2-2.9 3.8-2.5-2.3-5.2-4.1 2-4.2 4.6-8c2.1-3.2 4-3.6 7.6-4.2q.2 1.6 1.4 2.7 1.3.8 2.7.6t2.3-1.3q.7-1.2.4-2.4"/><path fill="#525DD2" d="M147.8 95.7a18 18 0 0 1 4 4.4q2.5 5 .8 10.2c-.4 1.4-1.2 3.4-2.6 4.1a2 2 0 0 1-1.6.2l-.8-.3c.4-2.5 0-5.3 0-7.8.1-3.6.6-7.2.2-10.8"/><path fill="#BDC2FD" d="M128.2 95.1c2 4.5 2.4 9.6 3.4 14.4-4.5-1.7-8.9-3.8-13.4-5.4q4-2 7.1-5.2 1.6-1.7 2.9-3.8"/><path fill="#DCDEFC" d="m104.5 98.6.1-.1c.4-.3 10.8-.3 11.8-.1h.3a10 10 0 0 1-7 2q-2.7-.5-5.2-1.8"/><path fill="#0F1156" d="M133.2 170.6q1.3-.5 2.5-1.3.7 1.1 2 1.2.9.1 1.6-.4l.4.3h18.2l.4-1c.7.5 1.4 1 2.3.7q.6 0 1.1-.6l1.1 1q2.2-.2 4.3 0h9q3.8.2 7.7-.1c1.6-.2 8.8-.2 10 .2q.6 0 .8.5c.4.7.3 6.1 0 6.8q-.2.4-.6.6c-1.4.5-9 .1-11 .1H13.3q-4 .1-8 .1c-.5 0-1.7 0-2.1-.3q-.6-.6-.5-1.5c-.1-1-.2-5.3.5-6.1.2-.3.9-.4 1.3-.4h8.8q5.5.4 11.2.2h100.8c2.6 0 5.2-.6 7.8 0"/><path d="M133.2 170.6q1.3-.5 2.5-1.3.7 1.1 2 1.2.9.1 1.6-.4l.4.3c.3 1 1 3 .4 4q-.5.6-1.3.7c-1.8.5-9.3.9-10.8.1q-.3-.2-.5-.6 0-.7.6-1.2c1.4-1.3 3.5-1.8 5-2.8m25.2-1.1q1 .8 2.3.6.6 0 1.1-.6l1.1 1q.8.6 1.2 1.2.7.8.7 1.9 0 .4-.6.9c-1.2.7-3.6.5-4.9.2q-.8 0-1.3-.7c-.6-1-.2-2.6 0-3.6z"/><path fill="#525DD2" d="M143.4 135.8v-.4q.4-.2.7 0c.3 0 1 .5 1.2.8.9.1 10 4.4 10.6 5q2 6.6 3.4 13.2 1.4 5.3 2.3 10.7v1.2l-.5.3q-1.6.5-3.3.7h-.1c-.7-.4-1-1.7-1.2-2.4l-.1.1q-1.5.2-3.1.1h-5.4c-1 0-6.5.2-7-.1l-.2-.2q.7-4.5 1.1-9 1.3-10 1.6-20"/><path fill="#0F1156" d="M145.3 136.2c.9.1 10 4.4 10.6 5q2 6.6 3.4 13.2 1.4 5.3 2.3 10.7v1.2l-.5.3q-1.6.5-3.3.7h-.1c-.7-.4-1-1.7-1.2-2.4-3.4-9.7-7.4-19.1-11.2-28.7"/><path fill="#525DD2" d="M156 141.3h.6l4.9 2.3 10 4.7c2 1 4 2.2 6.1 2.6a7 7 0 0 0 4.1-.7v5.8q.2 2.9-.4 5.8-.3 1.1-1.2 1.9-1 1-2.5 1.2c-2 .4-4 .2-6 .2h-10q-1-5.4-2.3-10.7-1.4-6.6-3.3-13.1M58.5 92.4l86.8 38.7 26.2 11.9 7.1 3.3q2.6 1 5 2.4l-.9.7q-7.8-3.3-15.4-7-11.6-5.4-23.3-10.6L57.9 93zm2.7-4.9q6 2.3 12 4.9l19.6 8 62.4 25.7 22.8 9.4 6.5 2.6q1.7.8 3.5 1.5v.1q.3.4 0 .7 0 .3-.2.4c-1-.9-4.9-2.3-6.2-2.8l-15.6-6.4-70.5-28.8-22.9-9.4-7-3q-2.4-.8-4.7-2z"/><path fill="#DCDEFC" d="M35.6 76.7q-.3.3-.6.2c-1.2.1-2.6.2-3.6-.7a2 2 0 0 1-.7-1.4q0-.8.5-1.2 1-.6 2-.7h38.6l30-.1H116q1.3-.1 2.2.6.4.5.4 1.3 0 1.1-1 1.9h-.1q-3.7.3-7.3.2H100l-35.9.1H45.7q-.9-.1-1.7.4c-1.4-.3-6.8-1.4-8-1.1q-.3.1-.4.5m55.1 34.1q4 1.7 7.8 3.6l-.1.1c-.7.5-3 .5-4 .5H41c-1.9 0-7.2.3-8.8-.1q-.6-.2-1-.8a2 2 0 0 1-.1-1.8q.5-1 1.8-1.2 2.2-.2 4.3 0h43.1c1.6 0 9.3.2 10.3-.2z"/><path fill="#0F1156" d="M135 131.7q.3-.2.8 0 3.7 1.7 7.5 3.4v.7q-.2 10-1.5 20-.4 4.5-1.1 9c-.3 1-.2 2.2-.8 3l-.1.2q-2 0-3.7-.3c-.5-.6-.3-1.9-.3-2.6q0-10.5-.2-21.1 0-4-.4-7.8z"/><path fill="#E3C34E" d="M45.7 77.6c5.5 1.4 11.4 2 16.7 4.1q0 3-1.2 5.8l-.3 1-2.4 4-.6.6-1.7 1.4q-3.3-2.4-6.3-5-2.2-2-4.6-3.9-1.4-1.2-2.7-2.5c1.6-1.6 2.3-3.5 3.1-5.5"/><path fill="#525DD2" d="m117.2 25.5 4.7 4.7 7.6 7.7q3.9 3.6 7.5 7.6l-2 .2h-7.7q-2.5.1-5-.4l-.8-.2-.7-.4q-.4-.1-.7-.4l-.7-.5q-1.5-1.5-2-3.6c-.4-1.9-.2-4-.2-6z"/><path fill="#262B7A" d="M129.5 71a3 3 0 0 1-.8-1.3 2 2 0 0 1 .3-1.4q.6-1 1.6-1.1 1.4-.3 2.5.7c1.8-.5 3-.5 4.7 0 1.4 1.5 2 2.4 2 4.6-.2 1.8-.4 3.5-1.8 4.7l-.5.4c.3 1.7.5 3.2 1.6 4.6q.3 1.2-.4 2.4-.8 1.1-2.3 1.3-1.6.2-2.7-.6-1.2-1.1-1.4-2.7V82l-.2-.6V81c-.2-.5-1.9 0-2.5-.3q-.9-.6-1.2-1.6c-.8-2.6 0-5.9 1.1-8.2"/><path d="M129.5 71a3 3 0 0 1-.8-1.3 2 2 0 0 1 .3-1.4q.6-1 1.6-1.1 1.4-.3 2.5.7c1.8-.5 3-.5 4.7 0 1.4 1.5 2 2.4 2 4.6-.2 1.8-.4 3.5-1.8 4.7l-.5.4h-.2q-.7.2-1 0c-.2-1 1.4-1.8 1.5-2.8q0-.4-.3-.8c-.8-.3-1.5.5-2.2.6q-.3 0-.5-.2-.1-1.3.4-2.6-2.8-.5-5.7-.8"/><path fill="#DCDEFC" d="M72.8 85.9q.4-.2 1-.3h38.8c1.3 0 3-.3 4.4 0q1 .3 1.4 1.1l.1.2q.1.2 0 .1t.1.2 0 .2v.6a2 2 0 0 1-1 1.2c-1.2.5-6.7.2-8.4.2H83q-.4 0-.7.3-4.8-1.8-9.4-3.8m-9.5 12.2 8.6 4h-.1c-.8.4-2.6.3-3.5.3H33.8q-.9 0-1.8-.3-.6-.2-.8-.8-.4-.9 0-1.8.3-.7 1-1c1.8-.5 4.5-.2 6.3-.2H61q1.1 0 2.1-.2zm-18-12.5 4.6 4h-11q-3 .1-6.1 0-.6-.1-1.2-.5-.5-.3-.7-1 0-1 .6-1.8.6-.5 1.5-.6h3.3c2.8 0 6.1.2 9 0z"/><path fill="#262B7A" d="M35.6 76.7q0-.3.4-.5c1.2-.3 6.6.8 8 1l1.7.4c-.8 2-1.5 3.9-3.1 5.5l-3-2.7c-1.4-1.1-3-2.2-4-3.7"/><path fill="#525DD2" d="M135.2 136.2c.5 2.5.3 5.2.4 7.8q.1 10.5.2 21.1h-2.4c1.3-2.8 1-6.4 1.1-9.4l.3-10.7q-.1-4.5.4-8.8M54 55q.5-1.9 1.2-3.8l2.2-7c.4-1.1 1.7-4.9 1.1-5.9-.5-.8-1.8-.7-2.7-1q-.4 0-.5-.4t.2-.8l1.3-.1c1.2 0 6.8-.4 7.5.3v.5q-.7.8-1.5.8l-1.4 2Q60 43 59 46.3l-3.7 11.1q-.7 2.7-1.8 5.3c-.2.5-.5 1.6-1 1.9h-.7q-.5-.4-.8-1-1-2.7-2-5.5l-3-9-.9-2.3-1.7 4.2-2.7 7c-.8 2-1.5 5-2.9 6.6h-.4q-.6-.1-.9-.9l-.7-2-1.4-3.9-4.2-12c-.8-2.2-1.4-4.9-2.7-6.8-.9-1.4-1.7-1-2.3-1.8v-.7l.1-.1c.6-.2 10.3-.3 11 0q.2 0 .3.4c.3 1-1.8.8-2.2 1.5-1 1.6 4.1 14.4 5 16.8q1.4-2.8 2.3-5.7l2.2-6.1c-.4-1.2-1-4-2-4.8q-1-.5-2-.9l-.4-.6q0-.4.2-.6.5-.2 1-.2h8.9q.8-.1 1.4.5v.5c-.4.4-1.3.6-1.8.7l-.5.4v1.2q.8 3.8 2.3 7.5Q52.5 51 54 55"/><path fill="#DCDEFC" d="M116 136.2q1.1-.1 2.1.5.6.5.6 1.3.1 1-.5 1.6-.7.8-1.8.6-5.2.1-10.6 0l-17.6.1-54.6.1q-1 0-2-.6-.6-.6-.6-1.4t.5-1.4q.7-.7 1.7-.6h23.3l37.9-.1zm-3.2-12.6c1.3 0 4.1-.5 5.2.5q.5.5.6 1.3 0 1-.6 1.6-.9.6-2.1.5-4 .1-8 0h-71c-1.5.1-4.2.5-5.4-.5a2 2 0 0 1-.6-1.2q0-.8.5-1.4.9-.8 2.1-.8c2.2-.2 5 0 7.2 0h16.1zm-33.9 25.2h7q2.9-.1 5.6 0 .8 0 1.5.6.4.5.4 1 0 1.4-1 2.2c-1.8.4-4 .2-5.8.2H38.5q-2.6.2-5.3 0l-1.4-.4q-.7-.4-.7-1.3-.2-.9.4-1.6.7-.6 1.7-.6h45.7M67.1 55q3.7-.3 7.5-.1H116q1 0 1.8.3.6.5.7 1.1.3 1-.4 1.9-.5.6-1.5.7H67.5q-1 0-2-.5a2 2 0 0 1-.5-1.2q0-1 .5-1.7.7-.6 1.6-.6"/><path fill="#A9B2FD" d="M153.5 35.8q4.6-7.5 9.5-14.8c1.3-2 6.6-10.8 8-11.7l.6.1a61 61 0 0 1 4.2 17.3q.4 3.8.5 7.7c0 11-2.5 25.2-9.5 34.1l-12.2-.2h-1.4l-2.8-.1h1.7q1-3.7 1.8-7.6a65 65 0 0 0-.4-24.8"/><path fill="#DCDEFC" d="M167 35a88 88 0 0 1-8.7 26q-2 3.7-3.7 7.3h-1.4c.3-1.2 1.3-2.3 1.8-3.4q2.5-4.9 4.8-10 2.4-5.7 4.4-11.6 1.3-4.2 2.7-8.3"/></svg>