<svg xmlns="http://www.w3.org/2000/svg" xml:space="preserve" viewBox="0 0 500 500"><path d="M0 0h500v500H0z" style="fill:#171e65"/><radialGradient id="a" cx="66.7" cy="84.3" r="70.8" gradientUnits="userSpaceOnUse"><stop offset="0" style="stop-color:#ff615e"/><stop offset=".2" style="stop-color:#e72d29"/><stop offset="1" style="stop-color:#b02320"/></radialGradient><circle cx="86" cy="97.2" r="43.5" style="fill:url(#a)"/><path d="M106.8 135.4q2-3.7-14.3-8.7a909 909 0 0 0-33-8.8L46 114.2l-1.3-3.6 1.3.3c18.3 6.5 37.8 8.7 56 15.7 2.4 1 9.1 4 7.9 7zm-36 2.6a43 43 0 0 0 15 2.7l-9.6-1.7zm30.3 0c.9-2.8-13-8.5-44.4-13l-4.6-.5 2.6 3c1 0 2.3.3 2.6.3 15.8 1.8 33.9 6 39.6 9.3q1.8 1.1 1.5 1.8zm-36.7-4.4-2.5-.1 4 2.2 3.9.4L85 139c4.2.8 5.6 1 6.4 1.3l3-.4c-3.4-1.6-29.7-6.2-30-6.3m59-31.3a40 40 0 0 0-10.2 9.6c-2.6 4.4-1 8.5.4 11.8 1 2.4 1.7 4.4 1.2 6l2.8-2.6c1.2-4.5-3.7-8-2.8-12.4.5-2 .5-2 11.6-10.8q2.3-1.7 2.9-2.8l.2-4v-.3a28 28 0 0 1-6.1 5.5m3.5 8.3a25 25 0 0 0-3 5c-.9 1.7-1 3.6-1.6 5.4l1.9-3q0-1.1.6-2.2t1.4-2.1l1.4-4zM77.3 55c3.1 1.6 5.4 4.4 8.4 6.2 5.3 3.2 31.6 18.7 40.9 20.2l-1.7-3.6c-3 .2-12.2-4.6-12.3-4.7C81.2 56.7 81 56.6 80.6 54q-2.2.3-4.3.8.5 0 1 .3m1.6 47.2c22.2 1.2 47.2 2.6 50.5-8.2q-.2-2.2-.6-4.2c-1 4.3-7.3 10.3-34.5 9a2256 2256 0 0 0-51.8-2.5v.8l.1 3.4q4.4 0 36.3 1.7m29.2-40 3.2-.5-3.4-2.2-3.8.5c-1 .2-2.5.5-3 1.2-.3.5-.8 2.3 5.4 5.4 4.6 2.4 12.4 5 15.1 5.6l-2.4-3.2a67 67 0 0 1-15.4-5.7c.2-.2.7-.8 4.3-1.2M44 91c16.3-.7 32.4 3.6 48.8 1.8 7.7-.9 15.4-2.6 14.4-9-1.4-8.7-28.4-25.3-36.5-27.4l-4.1 1.8C76 59 103.8 79.4 104 84c0 5.4-20.2 6.2-39.3 4.2a133 133 0 0 0-21-1.2l-.8 4zm50.7-34c5.9 1.4 10.2 2 12 1.9L103 57c-3.3.2-14-2.3-16.8-3.4h-1.4c.4.7 4.7 2.3 9.8 3.4M79.3 79.4c.4-1 1.3-3-2.2-7.2C68.4 61.3 65.4 60.8 64 60.5q-.7 0-1.6.2l-3 2.2c2-.3 4.2.6 5.3 1.4.1 0 11.3 9.7 11.7 13.7l-1.4.7c-5 1.7-23.8 2-28.8 1l-1.4 3.7c4.8.7 32.3 1.9 34.6-4m-19.5-.9c5.4-.4 7.7-1 8.7-3 1.2-2.6-3.7-7.6-9.9-8.7a9 9 0 0 0-3.6-.2l-2.6 3c2.8-.7 8.7.5 12.5 5l-1.1.2c-3.7.5-12.6.6-14.8-.5l-2 3.4c2.8 1.4 12.7.8 12.8.8" style="fill:#ffa905"/><radialGradient id="b" cx="389.5" cy="84.3" r="70.8" gradientUnits="userSpaceOnUse"><stop offset="0" style="stop-color:#868fc9"/><stop offset=".2" style="stop-color:#5d67a5"/><stop offset="1" style="stop-color:#272d61"/></radialGradient><circle cx="408.7" cy="97.2" r="43.5" style="fill:url(#b)"/><radialGradient id="c" cx="396.7" cy="82.9" r="58.6" gradientUnits="userSpaceOnUse"><stop offset="0" style="stop-color:#cbddf3"/><stop offset="1" style="stop-color:#5d67a5"/></radialGradient><path d="M366.3 102.5s-.8-1.2-1-4v-1.3a44 44 0 0 1 .6-7.3l1.2-5.2c5-17 20.1-29.5 38.3-30.9l-1.7 1c-2.5 1.5-5.5 1-8 2.5-3.4 2.2-9 8.4-11 10.8-2.4 2.6-5.5 2.9-5.3 1.3.3-2.8 3.3-3.6 4.3-5.9l-.2-.2c-.1 0-12.1 2.3-14 31-.8 11-3.1 8.3-3.2 8.2m20.3 32c.5.1.8.3 3.1 1.4.1 0 7.7 4 9.5 3.3-5-2.5-5.2-2.8-5.4-3.1-.7-.9.5-1.7 0-2.5q-.9-.9-1.5-2.1l-.1-.4v-.4c.5 0 .6-.1 1.8.6.7.5 1.2.7 1.2-.7 0-1 .4-1 .5-1 1.3.4 2 2 3.4 2l.7-.1a10 10 0 0 0 4-2.3c2.4-2 3-3.5 2-7.2q-1-2.5-1-4.6c.3-2.4 2.7-3.3 4-5l.5-1 .4-.5c1-1.3 2.6-2.2 3.7-3.5a6 6 0 0 0 1.5-2.6s1.3-7.8-5.5-10c-1.7-.3-4.6-1-7.6 2.7-3.1 3.8-2.6 9.1-5.2 13.2a29 29 0 0 1-7.1 7.2c-1.5.4-3.2-.1-3.4-.2-1.7-.5-3-1.8-4.6-2.4-.1 0-7.2-2.4-3.7 5.8 1.1 2.4.4 4.5-2.1 3.6l1.3 2.2a44 44 0 0 0 9.6 7.7m64.1-48.8-.4-.8c-1.6-3.2-4.6-5.6-6-9-.8-1.6-1.2-3.4-2.2-5-2.8-4.1-6.5-6-7.3-6.3-.9.3-1 .4-2.6-.2 0 .7 0 1-.5 1.7-2.3 3.2-.8 8.7 2.6 9.2a7 7 0 0 1 4.9 2.9c1.3 1.7 1 3.9 1.9 5.7q1.6-.2 2.8 1.2s4 4.8 2.5 10l-.2.3c-1.5 2.8-5 1.5-7 3.5-1 1-1 2-1 2.8-.2 10.7-4.3 16-4.5 16.2-3.3 4-9.2 2-6.3-4.4.9-2-3.3-1.7-5 .3-4.4 5-.3 10.8-1.4 16-.5 2-1.6 7-6.3 8.8-4.4 1.7-1.6-3.3-1.5-3.5 1.2-2 2-8.1-2.9-8.4.4 3.1.7 6.7-.8 9-1.8 2.6-5.2.9-7.3 2.6 0 .9 1.2 1.7 2.2 2l1.3.2v-.8s2.4-.8 3.3.9a44 44 0 0 0 8-.8 32 32 0 0 0 7.7-3.8c6.5-4.5 7.5-4 8.4-3.3q.8-.2 1.8-.9a44 44 0 0 0 6-5.4l.4-.7c.9-2 .2-4.2.8-6.3 2-6 7.5-10 9.7-16a44 44 0 0 0-1-17.7m-30.2-28.5c1 .3 1.2-.2 1-.6-.3-.4-.4-.5-3.6-2l-.9-.2c2.2.8 4.2 1.9 3.5 2.8m-6.1-3-1.4-.2.9.8zm18.6 6.8a43 43 0 0 0-10.4-5.2 52 52 0 0 1 8 4c1.3.9 1.8 1.2 2.4 1.2m-19-4.9q0 .5-.5.7-.6-.7-1-1.4c-2.5 1-3.1 1.3-1.7 4.5 1.5 3.6 2.7 6.2-1.4 12.3a31 31 0 0 1-17 11.7c-3.3.8-6.2 1.6-2-7q2-4-.6-3.5c0 .1-3.6 9.3-9.3 6.5-2.1 3.9-2.1 3.9-3.4 5.9-.8 1.1-2.2 1.8-2.5 3.3 0 0-.7 4.6.4 12.8 3-4.6 3-4.6 3.9-5.4 3.7-3.7 7.6-4.4 10.4-4.9 11-2 11-2 20-8 16.5-11.1 12.1-16 10-18.3-.6-.8-3.6-4.5 1-8 1-.8-.9-2-3.3-3l-2.6-.4v.2z" style="fill:url(#c)"/><radialGradient id="d" cx="236.8" cy="80.3" r="54.6" gradientUnits="userSpaceOnUse"><stop offset="0" style="stop-color:#eba067"/><stop offset="1" style="stop-color:#6e2d0f"/></radialGradient><circle cx="247.1" cy="97.2" r="43.5" style="fill:url(#d)"/><g style="opacity:.3"><radialGradient id="e" cx="230.8" cy="88.6" r="47.3" gradientUnits="userSpaceOnUse"><stop offset="0" style="stop-color:#dfebfa"/><stop offset="1" style="stop-color:#cbddf3"/></radialGradient><path d="M240.4 87.5c3.2-3.8 2.7-7.2 1.6-9.3-3.1-6.8-9.3-11-13.7-16.7q-1.4-1.8-1.3-3l-2.9 1.7c0 2.2 2.4 4.8 3.6 6 10.7 11.3 19.3 20.2-2.6 22.2-7 .4-17.2-.7-20.4-1.1l-.7 4.1c5.3 1 30 3.6 36.4-4" style="fill:url(#e)"/><radialGradient id="f" cx="230.8" cy="88.6" r="47.3" gradientUnits="userSpaceOnUse"><stop offset="0" style="stop-color:#dfebfa"/><stop offset="1" style="stop-color:#cbddf3"/></radialGradient><path d="M251.3 134.6c-9.7-3.6-18.9-6-24.9-7.2l-4.9-1c-2.5-.5-5.1-.5-7.6-1.1l2.4 2.6c13.2 2 40.3 8.8 38.3 12.1l3-.6c1-1.7-3.3-3.7-6.3-4.8" style="fill:url(#f)"/><radialGradient id="g" cx="230.8" cy="88.6" r="47.3" gradientUnits="userSpaceOnUse"><stop offset="0" style="stop-color:#dfebfa"/><stop offset="1" style="stop-color:#cbddf3"/></radialGradient><path d="M239.1 139.7c-4.2-1.8-7-2.3-8.7-2.3l4.6 1.6q1.5 0 2.3.6l2.6.5z" style="fill:url(#g)"/><radialGradient id="h" cx="230.8" cy="88.6" r="47.3" gradientUnits="userSpaceOnUse"><stop offset="0" style="stop-color:#dfebfa"/><stop offset="1" style="stop-color:#cbddf3"/></radialGradient><path d="M203.6 96.8v.4l.1 3.7c41.5 9.5 71.8 16.3 85 9.1l1-4c-16.7 9.1-76.8-6.3-86.1-9.2" style="fill:url(#h)"/><radialGradient id="i" cx="230.8" cy="88.6" r="47.3" gradientUnits="userSpaceOnUse"><stop offset="0" style="stop-color:#dfebfa"/><stop offset="1" style="stop-color:#cbddf3"/></radialGradient><path d="M275.6 126.7q-2.4 3.2-4.4 6.7l3.1-2.3q1.2-2.5 2.9-4.7c2-2.2 4.3-3.8 6.5-5.7l2.3-4c-3.4 3.3-7.4 6.2-10.4 10" style="fill:url(#i)"/><radialGradient id="j" cx="230.8" cy="88.6" r="47.3" gradientUnits="userSpaceOnUse"><stop offset="0" style="stop-color:#dfebfa"/><stop offset="1" style="stop-color:#cbddf3"/></radialGradient><path d="M246.2 125.2c-18-7.9-36-13.7-40.5-14.6l1.4 3.7c3.2 1 53.9 17.3 55 23.7l3.6-1.5c-1.2-3-13.8-8.8-19.5-11.3" style="fill:url(#j)"/><radialGradient id="k" cx="230.8" cy="88.6" r="47.3" gradientUnits="userSpaceOnUse"><stop offset="0" style="stop-color:#dfebfa"/><stop offset="1" style="stop-color:#cbddf3"/></radialGradient><path d="M246.3 140.7c-.8-5.2-17-6.6-22.7-6.9l3.6 2c4.8.4 15.5 1.7 18 4v.8z" style="fill:url(#k)"/><radialGradient id="l" cx="230.8" cy="88.6" r="47.3" gradientUnits="userSpaceOnUse"><stop offset="0" style="stop-color:#dfebfa"/><stop offset="1" style="stop-color:#cbddf3"/></radialGradient><path d="m212.5 70.9-2.7 4L211 73z" style="fill:url(#l)"/><radialGradient id="m" cx="230.8" cy="88.6" r="47.3" gradientUnits="userSpaceOnUse"><stop offset="0" style="stop-color:#dfebfa"/><stop offset="1" style="stop-color:#cbddf3"/></radialGradient><path d="m265.3 59.3 1.3-1-3.3-1.5-.8.6c-4.5 3.4-4.1 7.1-3 9.7 2.6 6 12 11.5 22.2 17 4.6 2.4 6.8 3.7 8 4.8l-1-4.2a66 66 0 0 0-7.2-4.2c-5.5-3-15.6-8.3-18.7-12.8q-3-4.6 2.5-8.4" style="fill:url(#m)"/><radialGradient id="n" cx="230.8" cy="88.6" r="47.3" gradientUnits="userSpaceOnUse"><stop offset="0" style="stop-color:#dfebfa"/><stop offset="1" style="stop-color:#cbddf3"/></radialGradient><path d="M257.1 54.9a43 43 0 0 0-6.6-1l-1.2-.2H247q-2 0-3.9.2c3.4.9 10.7 1.4 14 1" style="fill:url(#n)"/><radialGradient id="o" cx="230.8" cy="88.6" r="47.3" gradientUnits="userSpaceOnUse"><stop offset="0" style="stop-color:#dfebfa"/><stop offset="1" style="stop-color:#cbddf3"/></radialGradient><path d="M275.6 68.9c1.5 2 3.5 3.7 3.6 3.8q3.1 2.3 6.5 4.5l-2.2-3.8-3.5-2.3a19 19 0 0 1-3-2.5c-.7-1-.4-2.4-.2-3.2l-2.9-2.5c-.2 1.5-.3 3.2 1.7 6" style="fill:url(#o)"/><radialGradient id="p" cx="230.8" cy="88.6" r="47.3" gradientUnits="userSpaceOnUse"><stop offset="0" style="stop-color:#dfebfa"/><stop offset="1" style="stop-color:#cbddf3"/></radialGradient><path d="M282.9 87.6c-9.4-4.5-13.8-7-18.8-9.9-.3-.1-27.1-17.1-28-22.6l-2.9.8c1 4.5 16.5 16.2 18.6 17.6A141 141 0 0 0 273 86.6c5.2 2.8 10.5 5.2 15.7 8l1.8 1-.3-4.2c-1-.6-2.8-1.6-7.3-3.8" style="fill:url(#p)"/><radialGradient id="q" cx="230.8" cy="88.6" r="47.3" gradientUnits="userSpaceOnUse"><stop offset="0" style="stop-color:#dfebfa"/><stop offset="1" style="stop-color:#cbddf3"/></radialGradient><path d="M217.1 76.2c2-2.7 2.6-7.6 2.6-11.2v-1.7l-2.7 2.5v1.6c.1 8.3-1.7 9.2-8.8 11.3h-.5l-1.6 3.9h.1c6-1.6 8.6-3.1 11-6.4" style="fill:url(#q)"/></g><linearGradient id="r" x1="219.2" x2="318.7" y1="102.3" y2="133.8" gradientUnits="userSpaceOnUse"><stop offset="0" style="stop-color:#eba067"/><stop offset="1" style="stop-color:#6e2d0f"/></linearGradient><path d="M251.3 119.6c13.9-2 26.6-5 37-8.6a43 43 0 0 0 2-8.5c-9.8 4.2-24 8-40 10.4-17 2.5-32.6 2.9-43.2 1.4a43 43 0 0 0 4.3 7.8c11.5.5 25.2-.3 40-2.5" style="opacity:.5;fill:url(#r)"/><linearGradient id="s" x1="254" x2="244.8" y1="130" y2="84.3" gradientUnits="userSpaceOnUse"><stop offset="0" style="stop-color:#ffe705"/><stop offset=".5" style="stop-color:#ffa905"/><stop offset=".8" style="stop-color:#ff7e05"/><stop offset="1" style="stop-color:#ff6e05"/></linearGradient><path d="M315.6 88.2c-.9-6-12.4-9.6-29.6-10.4l1.3 2.8v.2c9.2 1 15 3.5 15.5 7 1.1 7.6-22.8 17.5-53.5 22s-56.4 2.1-57.5-5.5c-.5-3.4 4-7.3 12-10.9q.1-1.7.4-3.3c-15.8 5.7-25.5 12.5-24.6 18.4 1.5 10 33.1 13.6 70.7 8s66.8-18.2 65.3-28.3" style="fill:url(#s)"/><linearGradient id="t" x1="233.3" x2="266.6" y1="57.4" y2="153.6" gradientUnits="userSpaceOnUse"><stop offset="0" style="stop-color:#ffe705"/><stop offset=".5" style="stop-color:#ffa905"/><stop offset=".8" style="stop-color:#ff7e05"/><stop offset="1" style="stop-color:#ff6e05"/></linearGradient><path d="M315.1 87c-.9-5.9-12.5-9.6-29.7-10.4l1.5 3c9 1.1 14.8 3.5 15.3 7 1.2 7.6-22.8 17.5-53.4 22s-56.4 2.1-57.6-5.5c-.5-3.5 4.3-7.4 12.7-11.2l.5-3.3c-16.2 5.8-26.2 12.7-25.3 18.7 1.5 10 33.1 13.6 70.7 8 37.5-5.6 66.8-18.2 65.3-28.2" style="fill:url(#t)"/><path d="m196.8 116.6 4.7.6 5.4.4q3.2 0 7 .2h4l4.3-.2 4.6-.2 4.7-.3q4.8-.3 9.8-1 2.6-.2 5-.6l5.2-.8q5-.7 10-1.7l5-1 4.7-1.1 2.3-.6 2.3-.6 4.4-1.1 4-1.3 4-1.2 3.4-1.2 3.1-1.2 5-2 4.2-2.2-4.2 2.2q-2 1-5 2.2-2.7 1.2-6.5 2.6l-3.8 1.2q-2 .7-4 1.3l-4.5 1.2-2.2.7-2.4.5-4.7 1.1-5 1q-5 1.1-10 1.9l-5.1.7-5.1.6q-5.1.7-9.9 1l-4.7.2-4.6.2H214q-3.9 0-7-.3l-5.4-.5z" style="fill:#fff"/><linearGradient id="u" x1="223.6" x2="264.6" y1="188.8" y2="284.5" gradientUnits="userSpaceOnUse"><stop offset="0" style="stop-color:#ffe705"/><stop offset=".5" style="stop-color:#ffa905"/><stop offset=".8" style="stop-color:#ff7e05"/><stop offset="1" style="stop-color:#ff6e05"/></linearGradient><path d="m295 254-4.4-3.7c-1.8-1.9-4-4-3.9-6-.1-2 2-4 4-6 1.9-1.8 4-3.4 4.3-3.6 1.3-.9 1.3-2.5 1-3.4l-.7-1.6q-.7-.8-1.9-.9c-.4 0-3-.3-5.6-1q-2-.4-3.8-1.1t-2.6-2q-.7-1.4-.4-3.3t.8-3.9l2-5.3c.7-1.4-.1-2.9-.8-3.6-.7-.6-2.1-1.4-3.5-.7a61 61 0 0 1-9.2 2.8q-1.9.2-3.3-.5a6 6 0 0 1-2-2.5q-.7-1.9-1.2-3.9c-.6-2.6-1-5.1-1-5.6q0-1.1-.9-1.8l-1.5-.8c-1-.2-2.6-.2-3.4 1-.3.4-1.8 2.5-3.7 4.4s-3.9 4-6 4c-2 0-4-2-6-4l-3.6-4.3c-.8-1.3-2.5-1.3-3.4-1.1l-1.5.8q-.8.6-1 1.8c0 .5-.3 3-1 5.6q-.4 2-1.1 3.9-.8 1.7-2 2.5-1.4.8-3.3.5-1.9-.2-3.9-.9l-5.3-2c-1.4-.6-2.8.2-3.5.8s-1.5 2.2-.8 3.6a62 62 0 0 1 2.8 9.2q.3 1.9-.4 3.2-1 1.4-2.6 2-1.8.9-3.8 1.2c-2.6.7-5.2 1-5.6 1q-1.2 0-1.9 1l-.8 1.5c-.2 1-.2 2.5 1 3.4.4.2 2.5 1.8 4.5 3.7 1.9 1.8 4 3.9 3.9 6 .1 2-2 4-4 5.9-1.9 1.8-4 3.4-4.3 3.6-1.3.9-1.3 2.5-1 3.5q0 .7.7 1.5a3 3 0 0 0 1.9.9c.4 0 3 .4 5.6 1q2 .4 3.8 1.2t2.6 2q.6 1.3.4 3.3-.2 1.8-.8 3.8l-2 5.4c-.7 1.3.1 2.8.8 3.5s2.1 1.4 3.5.7a62 62 0 0 1 9.2-2.7q1.9-.3 3.3.4 1.2.9 2 2.6.7 1.8 1.2 3.8c.6 2.6 1 5.2 1 5.6q0 1.2.9 1.8l1.5.8c1 .3 2.6.3 3.4-1 .3-.4 1.8-2.4 3.7-4.4 1.9-1.9 3.9-4 6-3.9 2-.1 4 2 6 3.9 1.8 2 3.4 4 3.6 4.4.8 1.3 2.5 1.3 3.4 1l1.5-.8q.8-.6 1-1.8c0-.4.3-3 1-5.6q.4-2 1.1-3.8t2-2.6q1.4-.7 3.3-.4 1.9.1 3.9.8c2.6.9 5 1.7 5.3 2 1.4.6 2.8-.1 3.5-.8s1.5-2.2.8-3.5a61 61 0 0 1-2.8-9.2q-.2-2 .4-3.3 1-1.3 2.6-2 1.8-.7 3.8-1.2c2.6-.6 5.2-1 5.6-1a3 3 0 0 0 1.9-.9l.8-1.5c.2-1 .2-2.6-1-3.5" style="fill:url(#u)"/><radialGradient id="v" cx="238.8" cy="232.6" r="50.5" gradientUnits="userSpaceOnUse"><stop offset="0" style="stop-color:#ffe705"/><stop offset=".5" style="stop-color:#ffa905"/><stop offset=".8" style="stop-color:#ff7e05"/><stop offset="1" style="stop-color:#ff6e05"/></radialGradient><path d="M284 244.3a36.6 36.6 0 1 1-73.3 0 36.6 36.6 0 0 1 73.3 0" style="fill:url(#v)"/><linearGradient id="w" x1="344.6" x2="478.4" y1="272.7" y2="213" gradientUnits="userSpaceOnUse"><stop offset="0" style="stop-color:#868fc9"/><stop offset="1" style="stop-color:#272d61"/></linearGradient><path d="M442.8 212.7c-13.7-12.2-38.9-11.2-49.6-1.3s-10.8 17-14.4 27c-3.7 10-16.9 22.4-16.4 31.7.6 10.2 10.7 16 33 14.6s41.2-11 49.6-20.4c11.3-12.6 16.2-35-2.2-51.6" style="fill:url(#w)"/><path d="M405.7 269.5c3.3 2 5 7-.7 9.5s-18 2.1-21.8-1.6 6-8.7 12.4-9.5q6.2-.8 10.1 1.6m14-2.4c-4.3 0-8.8 5-6.4 6.5 2.4 1.6 10.4-.4 11.6-2.7s-.4-3.8-5.1-3.8m-9.5-8.1c-2-.5-5 2.5-5.4 4.3-.3 1.9 2.5 4 4.5 4.5s5.6-2 6.3-4.1c.7-2.2-3.3-4.2-5.4-4.7m-31 10.2c.3-2.8-5.1-.3-8.4 0s-3.8 6-1.2 7c5 1.8 9.4-4.1 9.7-7m5.2-4.7c-1 1.4.6 2.5 3.7 2 3-.5 9.4-1 10.6-2s-1.6-5.4-4-5.6c-2.3-.2-8.4 2.8-10.3 5.6m49.7-53.9c-5-1.1-13.9.8-12.4 5.4 1.4 4.5 10 8.3 15.1 7.6s5.7-5.8 4-8.6q-2-3.3-6.7-4.4M450 234c-2.7-2.7-9-2-8.6.6s6.8 6.2 9.3 5.3q3.7-1.4-.7-5.9m-.4-11c-1.1-1.7-5.4-1.7-6.9-.6s-1 4.5 0 6.3 5.5 2.4 7.4 1.5c2-1 .6-5.3-.5-7.1m-38-8c.6 2.7 4.9-1.5 7.8-3s1.6-6.8-1.1-6.9c-5.3 0-7.5 7-6.8 9.8m18.7 11.5c-1.5.5-1.4 2 .6 3.4s5.8 4.4 7.2 4.3 3-4.7 1.8-6.1-6.5-2.6-9.6-1.6" style="opacity:.5;fill:#868fc9"/><path d="M384.3 265.1q0 1.8 4 1.4c3-.5 9.4-1 10.6-2v-.2q0 .4-.2.6c-1.2 1.1-7.5 1.5-10.6 2-2.9.5-4.4-.4-3.8-1.8m-14.6 11c-1.5-.5-2-2.6-1.4-4.4-.7 1.9-.4 4.3 1.2 4.9 4.5 1.7 8.6-3 9.5-6-1.1 3-5 7.1-9.3 5.6m72.9-47.2c1 1.8 5.4 2.5 7.4 1.5q.7-.4 1-1.3a2 2 0 0 1-.9.9c-2 1-6.4.3-7.4-1.5a8 8 0 0 1-.8-5c-.6 1.5-.2 4 .7 5.4M405 279c-5.8 2.5-18 2.1-21.8-1.6q-1.1-1.2-.8-2.4-.7 1.6.7 2.8c3.8 3.8 16 4.2 21.7 1.7q3.2-1.6 3.7-3.7-.7 1.9-3.5 3.2m14.3-66.5q1.2-.6 1.5-2-.4 1-1.4 1.6c-3 1.4-7.2 5.6-7.9 2.8a8 8 0 0 1 .4-4 8 8 0 0 0-.5 4.4c.7 2.8 5-1.4 7.9-2.8m18.7 21.6c-1.4.1-5.1-3-7.2-4.3q-1.8-1.3-1.6-2.3-.7 1.2 1.5 2.7c2 1.3 5.8 4.5 7.2 4.3.7 0 1.4-1.2 1.8-2.6q-.6 2-1.7 2.2m-1-10.5c-5 .7-13.7-3-15.1-7.6a3 3 0 0 1-.1-1.6q-.5.8 0 2c1.4 4.6 10 8.4 15 7.7 2.7-.4 4.2-2 4.7-3.8-.6 1.6-2 3-4.5 3.3m13.7 16.2c-2.5 1-8.9-2.7-9.3-5.3v-.5l-.2 1c.5 2.5 6.9 6.2 9.3 5.3q1.5-.7 1.7-1.6-.5.8-1.5 1.1M424.9 271c-1.2 2.3-9.2 4.3-11.6 2.7q-.9-.6-.6-1.7-.6 1.4.4 2.1c2.4 1.6 10.4-.3 11.7-2.7l.3-.8zm-9.4-6.8v-.2c-.8 2-4.2 4.5-6.1 4-2-.7-4.8-2.7-4.5-4.6v-.1l-.1.6c-.3 1.8 2.4 3.9 4.4 4.5s5.6-2.1 6.3-4.2" style="opacity:.3;fill:#fff"/><path d="M410 260.2c1.8.4 5.3 2 5.5 4l.2-.5c.7-2.2-3.3-4.2-5.4-4.7s-5 2.5-5.4 4.3v.4c.9-1.8 3.3-4 5-3.5m8-53.9c1.8 0 3 2.4 2.8 4.4 1-2.1-.3-5.5-2.4-5.6-3.9 0-6 3.8-6.7 6.9.9-2.8 3-5.7 6.4-5.7m16 5.5q4.8 1 6.7 4.4 1 1.8.8 4.1c.7-1.8.4-3.9-.5-5.3q-2-3.3-6.7-4.4c-4.6-1-12.4.5-12.6 4.3 1.5-3 8.2-4 12.3-3m8.4 11.6c1.5-1.1 5.7-1.2 6.9.6.7 1.2 1.6 3.6 1.5 5.3 1-1.6-.3-5-1.2-6.4-1.1-1.8-5.4-1.8-6.9-.7q-.9.6-1 2zm7.6 10.4c-2.7-2.7-9-2-8.6.6 1.3-1.6 6-1.6 8.3.6q2.3 2.3 2.4 3.8 1.1-1.7-2-5m-30.3 33.2c-3.6 0-7.3 3.3-7.2 5.3 1-1.9 4-4 6.9-4q5.5 0 5.5 2.3 1.7-3.4-5.2-3.6m-25.2-7c1.8.2 3.9 2.8 4.2 4.4 1.2-1-1.5-5.4-3.9-5.6-2.3-.2-8.4 2.8-10.3 5.6q-.4.6-.2 1c2-2.7 8-5.6 10.2-5.4m35.6-33.7q-1.2.5-1 1.6l.7-.4c3-1 8.4.2 9.6 1.6q.6.8.3 2.6c.5-1.4.6-3 0-3.8-1.1-1.4-6.5-2.6-9.6-1.6M371 269.2c-1.6.2-2.5 1.7-2.8 3.3.5-1 1.3-2 2.5-2 3.3-.4 8.7-2.9 8.4 0l.4-1.3c.2-2.8-5.2-.3-8.5 0m34.8.3a15 15 0 0 0-10.1-1.6c-5.5.6-13.2 4.3-13.3 7.6 1.5-3 8.2-5.8 13-6.4q6.1-.8 10 1.6c2 1.1 3.3 3.2 3.1 5.3 1-2.4-.5-5.2-2.7-6.5" style="opacity:.5;fill:#868fc9"/><radialGradient id="x" cx="66.9" cy="232.3" r="71.2" gradientUnits="userSpaceOnUse"><stop offset="0" style="stop-color:#ffe705"/><stop offset=".5" style="stop-color:#ffa905"/><stop offset=".8" style="stop-color:#ff7e05"/><stop offset="1" style="stop-color:#ff6e05"/></radialGradient><path d="M125.8 242.2c5.4-5.7 3.6-11.4-4-12.8l-5.8-1-13.9-2.5-9.4-17.6c-3.7-6.8-9.7-6.8-13.4 0L69.8 226l-19.6 3.5c-7.6 1.4-9.5 7.1-4.1 12.8l13.8 14.4-2.7 19.7c-1 7.7 3.8 11.3 10.8 7.9l.2-.1 17.8-8.6 17.8 8.6h.1c7 3.5 11.9 0 10.9-7.8l-2.7-19.7z" style="fill:url(#x)"/><radialGradient id="y" cx="973.1" cy="2203.2" r="20.6" gradientTransform="rotate(45 2725.8 397.6)" gradientUnits="userSpaceOnUse"><stop offset="0" style="stop-color:#ffe705"/><stop offset=".5" style="stop-color:#ffa905"/><stop offset=".8" style="stop-color:#ff7e05"/><stop offset="1" style="stop-color:#ff6e05"/></radialGradient><path d="M228.1 416.7a9.6 9.6 0 0 1 0 13.6c-6.5 6.5-20.7 7.2-20.7 7.2s.6-14.2 7.2-20.8a9.6 9.6 0 0 1 13.5 0" style="fill:url(#y)"/><radialGradient id="z" cx="972.8" cy="2194.9" r="16.1" gradientTransform="rotate(45 2725.8 397.6)" gradientUnits="userSpaceOnUse"><stop offset="0" style="stop-color:#ffe705"/><stop offset=".5" style="stop-color:#ffa905"/><stop offset=".8" style="stop-color:#ff7e05"/><stop offset="1" style="stop-color:#ff6e05"/></radialGradient><path d="M226.5 418.3a5.3 5.3 0 0 1 0 7.6c-3.6 3.6-11.5 4-11.5 4s.3-8 4-11.6a5.3 5.3 0 0 1 7.5 0" style="fill:url(#z)"/><radialGradient id="A" cx="939.8" cy="2167" r="27.7" gradientTransform="rotate(45 2725.8 397.6)" gradientUnits="userSpaceOnUse"><stop offset="0" style="stop-color:#ff615e"/><stop offset=".5" style="stop-color:#e72d29"/><stop offset="1" style="stop-color:#b02320"/></radialGradient><path d="M231.5 389.2s-14.8-.7-16.5-.6c-1.8 0-4.2 1.3-4.8 3.2-1.3 3.3-10 24-10 24.4-.1.6 2.6 7.4 2.8 7.7.3.2 1.4 1 2.6 0l15.8-16z" style="fill:url(#A)"/><radialGradient id="B" cx="4437.1" cy="2167" r="27.7" gradientTransform="scale(-1 1)rotate(-45 -4 6968.7)" gradientUnits="userSpaceOnUse"><stop offset="0" style="stop-color:#ff615e"/><stop offset=".5" style="stop-color:#e72d29"/><stop offset="1" style="stop-color:#b02320"/></radialGradient><path d="M255.6 413.4s.7 14.8.7 16.5-1.4 4.1-3.2 4.8c-3.4 1.2-24 9.9-24.5 10s-7.4-2.6-7.6-2.9-1.1-1.4 0-2.5l15.9-15.9z" style="fill:url(#B)"/><radialGradient id="C" cx="959.9" cy="2121" r="88.4" gradientTransform="rotate(45 2725.8 397.6)" gradientUnits="userSpaceOnUse"><stop offset="0" style="stop-color:#fff"/><stop offset="1" style="stop-color:#cbddf3"/></radialGradient><path d="M278.3 401.8q8.3-9.3 11.7-18.4a59 59 0 0 1-28.6-28.6q-9 3.6-18.3 11.7a84 84 0 0 0-23.8 36.5l22.5 22.6c9-2.8 23.3-9.3 36.5-23.8" style="fill:url(#C)"/><radialGradient id="D" cx="958.8" cy="2174" r="26" gradientTransform="rotate(45 2725.8 397.6)" gradientUnits="userSpaceOnUse"><stop offset="0" style="stop-color:#868fc9"/><stop offset=".2" style="stop-color:#5d67a5"/><stop offset="1" style="stop-color:#272d61"/></radialGradient><path d="M219.3 403c-1.8 5.7-2.2 9.3-2.2 9.3l7.7 7.7 7.7 7.8s3.7-.4 9.3-2.2z" style="fill:url(#D)"/><radialGradient id="E" cx="970" cy="2093.5" r="24.1" gradientTransform="rotate(45 2725.8 397.6)" gradientUnits="userSpaceOnUse"><stop offset="0" style="stop-color:#ff615e"/><stop offset=".5" style="stop-color:#e72d29"/><stop offset="1" style="stop-color:#b02320"/></radialGradient><path d="M293.6 351.2s-14.8-3.5-32.2 3.6a59 59 0 0 0 28.6 28.6c7.2-17.4 3.6-32.2 3.6-32.2" style="fill:url(#E)"/><radialGradient id="F" cx="970.5" cy="2128.6" r="24" gradientTransform="rotate(45 2725.8 397.6)" gradientUnits="userSpaceOnUse"><stop offset="0" style="stop-color:#ffe705"/><stop offset=".5" style="stop-color:#ffa905"/><stop offset=".8" style="stop-color:#ff7e05"/><stop offset="1" style="stop-color:#ff6e05"/></radialGradient><circle cx="257.9" cy="386.9" r="17" style="fill:url(#F)"/><radialGradient id="G" cx="970.9" cy="2129.5" r="20.7" gradientTransform="rotate(45 2725.8 397.6)" gradientUnits="userSpaceOnUse"><stop offset="0" style="stop-color:#868fc9"/><stop offset=".2" style="stop-color:#5d67a5"/><stop offset="1" style="stop-color:#272d61"/></radialGradient><path d="M268.3 397.3a14.6 14.6 0 1 1-20.7-20.7 14.6 14.6 0 0 1 20.7 20.7" style="fill:url(#G)"/><radialGradient id="H" cx="1184.1" cy="2217.6" r="83.8" gradientTransform="rotate(45 3050 399.8)" gradientUnits="userSpaceOnUse"><stop offset="0" style="stop-color:#ffe705"/><stop offset=".5" style="stop-color:#ffa905"/><stop offset=".8" style="stop-color:#ff7e05"/><stop offset="1" style="stop-color:#ff6e05"/></radialGradient><path d="M457.5 398.9s-10.4 0-23.6 1c9-21.2 14.5-42 14.5-42s-20.8 5.5-42.1 14.4c1-13.2 1-23.6 1-23.6s-32.7 29.8-43 51.3a30.4 30.4 0 0 0 42 41.9c21.4-10.3 51.2-43 51.2-43" style="fill:url(#H)"/><radialGradient id="I" cx="1181.3" cy="2249.2" r="54.5" gradientTransform="rotate(45 3050 399.8)" gradientUnits="userSpaceOnUse"><stop offset="0" style="stop-color:#ffe705"/><stop offset=".3" style="stop-color:#ffc405"/><stop offset=".5" style="stop-color:#ffa905"/><stop offset=".8" style="stop-color:#ff7e05"/><stop offset="1" style="stop-color:#ff6e05"/></radialGradient><path d="M372 434.2a17 17 0 0 1 0-24c11.7-11.6 44.3-20.3 44.3-20.3s-8.7 32.6-20.3 44.3a17 17 0 0 1-24 0" style="fill:url(#I)"/><radialGradient id="J" cx="79.3" cy="364.5" r="97.7" gradientUnits="userSpaceOnUse"><stop offset="0" style="stop-color:#cbddf3"/><stop offset="1" style="stop-color:#5d67a5"/></radialGradient><path d="M122 418.5a35.5 35.5 0 0 1-21.3-63.9 44 44 0 0 0-7.4-.6 43.5 43.5 0 1 0 38.9 63 36 36 0 0 1-10.2 1.5" style="fill:url(#J)"/><radialGradient id="K" cx="110.3" cy="334.8" r="106.1" gradientUnits="userSpaceOnUse"><stop offset="0" style="stop-color:#cbddf3"/><stop offset="1" style="stop-color:#5d67a5"/></radialGradient><path d="M86.5 383c0-11.5 5.5-21.7 14-28.2a36.1 36.1 0 1 0 31.5 62.5l.2-.2a36 36 0 0 1-10.2 1.4A35.5 35.5 0 0 1 86.5 383" style="fill:url(#K)"/><radialGradient id="L" cx="85.3" cy="383.3" r="113.1" gradientUnits="userSpaceOnUse"><stop offset="0" style="stop-color:#cbddf3"/><stop offset="1" style="stop-color:#5d67a5"/></radialGradient><path d="m79.6 411.9-1-1.5-1-1.7q-1-1.7-2-3.9-.5-1.1-.9-2.2t-.7-2.4l-.7-2.5-.4-2.6-.2-1.3v-1.4q-.1-1.4-.1-2.7l.1-2.7v-.7l.1-.7.3-1.3q.3-2.6 1.1-5l.9-2.4.4-1.2.5-1 1-2.1 1-1.8 1.1-1.7 1-1.4 1-1.2.9-1 1.7-2-1.8 1.8-1 1-1 1.2-1.2 1.3-1.1 1.7-1.2 1.8-1 2q-.4.5-.6 1.1l-.5 1.2-1 2.4q-.7 2.4-1.2 5.2l-.2 1.3-.1.7v.7l-.2 2.8.1 2.8v1.3l.3 1.4.4 2.7.7 2.5q.4 1.3.9 2.5.3 1.1 1 2.2 1 2.1 2.1 4l1.1 1.6 1.1 1.4q1 1.3 2 2.2L83 416l-1.6-2q-.8-.8-1.8-2.2" style="fill:url(#L)"/><radialGradient id="M" cx="100.3" cy="427.5" r="71.6" gradientUnits="userSpaceOnUse"><stop offset="0" style="stop-color:#cbddf3"/><stop offset="1" style="stop-color:#5d67a5"/></radialGradient><path d="M90.3 436.2c-.4 1.8-3.5 2.6-7 1.8s-6-2.8-5.6-4.6 3.5-2.6 7-1.9 6 2.9 5.6 4.7m-16.6-7.6c-1.8-1-3.7-.7-4.3.4s.3 2.9 2 3.8 3.6.7 4.3-.5-.3-2.8-2-3.7m8.5-.4c.3-1.3-1-2.7-3-3.1-1.8-.5-3.6.2-3.9 1.5-.3 1.2 1 2.6 2.9 3 1.9.5 3.7-.2 4-1.4" style="fill:url(#M)"/><radialGradient id="N" cx="69.1" cy="389.2" r="38.5" gradientUnits="userSpaceOnUse"><stop offset="0" style="stop-color:#cbddf3"/><stop offset="1" style="stop-color:#5d67a5"/></radialGradient><path d="M90.3 436.5c-.4 1.8-3.5 2.7-7 1.9s-6-2.9-5.6-4.7 3.5-2.6 7-1.8c3.5.7 6 2.8 5.6 4.6M73.7 429c-1.8-.9-3.7-.7-4.3.5s.3 2.8 2 3.7 3.6.7 4.3-.4-.3-2.9-2-3.8m8.5-.4c.3-1.3-1-2.7-3-3.1-1.8-.5-3.6.2-3.9 1.5s1 2.7 2.9 3.1 3.7-.2 4-1.5" style="fill:url(#N)"/></svg>