<svg id="Layer_1" data-name="Layer 1" xmlns="http://www.w3.org/2000/svg" viewBox="0 0 1247.4 189.1"><defs><style>.cls-1{fill:#4285F4;}</style></defs><title>DataMonad_c2</title><path class="cls-1" d="M47.7,6.7c-6.5,0-22.4.5-47.7,1.4V186.7H39.6q92.9,0,92.9-96.4,0-37.8-22.9-60.7C94.4,14.3,73.7,6.7,47.7,6.7ZM86,141c-9.1,11.6-21.7,17.4-37.7,17.4-6,0-11.5-.2-16.6-.7V35.9c6.2-.6,11.1-.9,14.5-.9q53.4,0,53.4,57.3C99.6,113.1,95.1,129.4,86,141Zm173,5.7v-28q0-37.9-13.9-51.6c-9.3-9-23.9-13.6-43.8-13.6-14.5,0-27,2.6-37.5,7.7L170.4,85q11.5-6,28.8-6c19.4,0,29.1,7.7,29.1,23.2a55.1,55.1,0,0,0-12.7-1.9q-31.2,0-48.3,12.8c-11.3,8.6-17,20.4-17,35.5,0,13,4,22.9,12.1,30s19.1,10.5,33.1,10.5a54.7,54.7,0,0,0,21.5-4.3c6.9-2.9,11.7-6.7,14.4-11.2a24.8,24.8,0,0,0,7.2,10.6,16.7,16.7,0,0,0,11.9,4.9,34.3,34.3,0,0,0,10.6-1.5q4.6-1.5,8.4-8.1C262.5,175,259,164.1,259,146.7Zm-30.4-9.2c0,18.2-9.2,27.4-27.4,27.4-13.6,0-20.4-5.9-20.4-17.6,0-15.8,12-23.7,36.1-23.7a63.4,63.4,0,0,1,11.7,1.7Zm103,20.1c-3-3.8-4.4-10.5-4.4-19.8V80.4h36V55.9h-36V18L296.7,29.3V55.9H281.6V80.4h15.1v66.2q0,20.4,10.5,31.5c7,7.3,17,11,30,11s23.2-1.2,30.3-3.6V157.4a37.7,37.7,0,0,1-20.5,6C339.6,163.4,334.5,161.5,331.6,157.6Zm159.7-10.9v-28q0-37.9-13.9-51.6c-9.3-9-23.9-13.6-43.8-13.6-14.5,0-27,2.6-37.5,7.7L402.7,85q11.6-6,28.8-6c19.4,0,29.1,7.7,29.1,23.2a55.1,55.1,0,0,0-12.7-1.9q-31.2,0-48.3,12.8c-11.3,8.6-17,20.4-17,35.5,0,13,4,22.9,12.1,30s19.1,10.5,33.1,10.5a54.7,54.7,0,0,0,21.5-4.3c6.9-2.9,11.7-6.7,14.4-11.2a24.8,24.8,0,0,0,7.2,10.6,16.7,16.7,0,0,0,11.9,4.9,34.3,34.3,0,0,0,10.6-1.5q4.7-1.5,8.4-8.1C494.8,175,491.3,164.1,491.3,146.7Zm-30.4-9.2c0,18.2-9.2,27.4-27.4,27.4-13.6,0-20.4-5.9-20.4-17.6,0-15.8,12-23.7,36.1-23.7a63.4,63.4,0,0,1,11.7,1.7ZM639.6,7.9,601.8,128.4,563.1,7.9H546.3l-36,178.8H541l19.2-96.2,36,98.6h11.3l36.1-98.6,18.6,96.2h30.7L656.4,7.9ZM764.9,53.5q-28.4,0-45.6,18.8T702.1,121q0,30.9,16.5,49.5c11,12.4,26.5,18.6,46.3,18.6s34.7-6.1,45.9-18.4,16.8-28.9,16.8-49.7-5.5-37.4-16.5-49.4S784.7,53.5,764.9,53.5Zm22.7,99.4a26.9,26.9,0,0,1-22.7,11.3c-20.8,0-31.1-14.4-31.1-43.2,0-13.4,2.8-23.8,8.4-31.3s13.2-11.2,22.7-11.2q31.1,0,31,42.5C795.9,134.8,793.1,145.5,787.6,152.9Zm129-99.4c-16.2,0-28.5,4.9-36.8,14.6l-5.6-12.2h-22V186.7h30.5V92.2A35.9,35.9,0,0,1,909,79c9.7,0,16.7,2.5,21,7.7s6.4,13.2,6.4,24.4v75.6h30.5V106.5q0-25.1-13.5-39C944.4,58.2,932.1,53.5,916.6,53.5Zm183.3,93.2v-28q0-37.9-14-51.6c-9.2-9-23.9-13.6-43.8-13.6-14.5,0-27,2.6-37.5,7.7l6.6,23.8q11.5-6,28.8-6c19.4,0,29.1,7.7,29.1,23.2a54.3,54.3,0,0,0-12.6-1.9q-31.4,0-48.4,12.8c-11.3,8.6-17,20.4-17,35.5,0,13,4.1,22.9,12.1,30s19.1,10.5,33.1,10.5a54.3,54.3,0,0,0,21.5-4.3c6.9-2.9,11.7-6.7,14.5-11.2a24.5,24.5,0,0,0,7.1,10.6,16.9,16.9,0,0,0,11.9,4.9,34.3,34.3,0,0,0,10.6-1.5c3.1-1,5.9-3.7,8.5-8.1C1103.4,175,1099.9,164.1,1099.9,146.7Zm-30.5-9.2c0,18.2-9.2,27.4-27.4,27.4-13.6,0-20.4-5.9-20.4-17.6,0-15.8,12-23.7,36.1-23.7a63.4,63.4,0,0,1,11.7,1.7ZM1217,7.3V59.6a60.9,60.9,0,0,0-27.1-6.1q-27.2,0-45.2,19.5t-18,50.5c0,20.6,5.3,36.7,15.7,48.3s24.8,17.3,43.1,17.3a55.9,55.9,0,0,0,18.6-3.1c6.1-2,10.3-4.4,12.9-7.2v7.9h30.4V0Zm0,148.2c-1.3,1.8-4.1,3.6-8.4,5.3a28.8,28.8,0,0,1-10.8,2.6c-26.3,0-39.4-13.5-39.4-40.7,0-14,3.3-24.6,9.9-32.1s16-11.2,28.2-11.2c7.1,0,13.9,2.6,20.5,7.9Z" transform="translate(0)"/></svg>
