<svg id="Layer_2" data-name="Layer 2" xmlns="http://www.w3.org/2000/svg" viewBox="0 0 997.9 189.1"><defs><style>.cls-1{fill:red;}.cls-2{fill:#1E90FF;}</style></defs><title>mr3docs</title><path class="cls-1" d="M109.3-11.4a59,59,0,0,0-27.1-6.1Q55-17.5,37.1,1.9t-18,50.5q0,31,15.7,48.3c10.4,11.6,24.8,17.4,43,17.4A58.7,58.7,0,0,0,96.5,115c6-2.1,10.3-4.5,12.8-7.3v8h30.5V-71.1l-30.5,7.4Zm0,95.8c-1.3,1.8-4.1,3.6-8.3,5.4s-7.9,2.6-10.9,2.6q-39.3,0-39.3-40.8c0-13.9,3.3-24.6,9.9-32S76.7,8.4,88.9,8.4q10.6,0,20.4,7.8ZM224.7-17.5c-18.9,0-34.1,6.2-45.6,18.8S161.8,30,161.8,50s5.5,37,16.6,49.4,26.4,18.7,46.3,18.7,34.7-6.2,45.9-18.5S287.4,70.8,287.4,50,281.9,12.6,270.9.5,244.5-17.5,224.7-17.5Zm22.6,99.4c-5.6,7.5-13.1,11.2-22.6,11.2q-31.2,0-31.2-43.1c0-13.5,2.8-23.9,8.4-31.4A27.3,27.3,0,0,1,224.7,7.4c20.6,0,31,14.2,31,42.6C255.7,63.8,252.9,74.4,247.3,81.9ZM374.2,92.6q-39.1,0-39.2-41.2c0-13.6,3.4-24.2,10.1-31.9S360.9,7.9,372.5,7.9s21.7,3.4,28.9,10.1l13-22.8c-11.2-8.5-24.4-12.7-39.7-12.7q-33,0-52.2,19T303.3,51.4c0,20.9,5.8,37.3,17.5,49s27.6,17.7,47.8,17.7a113.8,113.8,0,0,0,23.5-2.2c6.7-1.5,14.4-5,23.3-10.6l-11.3-24A43.7,43.7,0,0,1,374.2,92.6ZM515.4,55.7c-5.1-6.4-13.3-11.9-24.8-16.4s-18.9-8.2-22.4-10.8-5.3-5.7-5.3-9.1c0-8.5,5.3-12.7,16-12.7s21.1,2.9,27.8,8.6l8.8-23.7a83.1,83.1,0,0,0-38.3-9.1c-13.4,0-24.4,3.1-33,9.4s-13,15.1-13,26.4q0,25.4,33.8,39.4c10.3,4.3,17.3,8,20.9,11.2a15.4,15.4,0,0,1,5.3,12.2c0,8.5-5.9,12.7-17.8,12.7a48,48,0,0,1-30.8-11l-10.9,24.4c8.2,4.4,15,7.3,20.2,8.7s12.2,2.2,20.9,2.2q23.3,0,36.6-10.5c9-6.9,13.5-16.5,13.5-28.6C522.9,69.9,520.4,62.1,515.4,55.7Z" transform="translate(475 71.1)"/><path class="cls-2" d="M-345.6-65.4-383.4,55.1-422.2-65.4H-439l-36,178.8h30.7l19.2-96.3,36,98.7h11.3l36.1-98.7,18.6,96.3h30.7L-328.8-65.4Zm180.9,79.7a48,48,0,0,0,9.4-28.9q0-52.8-68.1-52.7c-7.3,0-16.9.3-28.9.9l-20.6.9V113.4H-240V38.6q12.9.8,20.1.9l47.6,73.9h36.7l-52.8-80.7A49.6,49.6,0,0,0-164.7,14.3ZM-197.4,7c-6.1,3.7-15.9,5.6-29.2,5.6-3.1,0-7.5-.3-13.4-.8V-37.8a80.4,80.4,0,0,1,10.8-.7c14.1,0,24.5,1.7,31.1,5.2s9.9,9.6,9.9,18.4C-188.2-4.1-191.2,3.2-197.4,7ZM-39.5,17.3Q-17,3.6-17-22.5c0-14.6-5-26-14.9-34.1S-55.8-68.8-73.7-68.8a61.4,61.4,0,0,0-24.4,5.3c-8.2,3.4-14.2,7.5-18,12.2l14.9,21.9c8.3-8.3,16.9-12.5,25.7-12.5,17.1,0,25.6,8,25.6,24S-59,4.9-77.2,4.9H-82V31.1h5.6q15,0,23.7,8.1c5.9,5.4,8.8,12.5,8.8,21.1,0,19.1-10.1,28.6-30.3,28.6-11.1,0-21.4-5-30.9-15.1l-15.8,24.5c12.8,11.6,28.2,17.5,46.3,17.5,19.9,0,35.4-4.7,46.7-14.1S-11,79.1-11,62.1Q-11,30.9-39.5,17.3Z" transform="translate(475 71.1)"/></svg>
