<svg xmlns="http://www.w3.org/2000/svg" xml:space="preserve" viewBox="0 0 1122 1122"><path d="M0 0h1122v1122H0z" style="fill:#87CEEB"/><path d="M1071 993.8A573 573 0 0 0 948.7 833 572.7 572.7 0 0 0 4.2 1120.5H61a517.6 517.6 0 0 1 850.2-247l1 1a524 524 0 0 1 34 34.5 517 517 0 0 1 31.5 38.6 521 521 0 0 1 34.1 52.8 506 506 0 0 1 10 18.5l5.5 11a514 514 0 0 1 33.5 90.5h56.9a569 569 0 0 0-46.8-126.6" style="opacity:.1;fill:#fff"/><path d="M911.3 873.5a517.6 517.6 0 0 0-850.2 247H228a114 114 0 0 1 .5-89q-9.2-4.3-15.5-14.8c-27.2-46.4 44.5-96.2 75.2-117.9l51.4-36.4c38.2-27 81.2-55.3 127.7-50 20.4 2.4 42.3 14.4 45.8 34.7 2 11.7-2.7 23.6-8.5 34-18.2 33-48.8 59-84.3 71.6-11.8 4.3-24.3 7-35.7 12.4q-5 2.4-9.7 5.2a114 114 0 0 1 64.1 150.1h553.3a514 514 0 0 0-81-246.9m-356.1 26.3a13.4 13.4 0 0 1-14.5 10.2l-1.7-.3a13.4 13.4 0 1 1 6.3-26l1.6.5c6.2 2.4 9.8 9 8.3 15.6m88 189.7-1.6.6a13.4 13.4 0 1 1-6.1-26l1.7-.4a13.4 13.4 0 0 1 6 25.8M694.7 961q-4 .5-8.3.6a64.4 64.4 0 1 1 8.3-.6M819 1076.7q-2.6.3-5.3.3a41.5 41.5 0 1 1 5.3-.3M866 913a13.4 13.4 0 0 1-14.5 10.2l-1.7-.3a13.4 13.4 0 1 1 6.3-26l1.6.5c6.2 2.4 9.9 9 8.3 15.6" style="fill:#c4ba80"/><path d="M256.4 1034.9a48 48 0 0 1-27.9-3.4 114 114 0 0 0-.5 89h29.3a114 114 0 0 1-.9-85.6" style="fill:#756f46"/><path d="M375 970.3c-10.5 6.3-20.1 14.1-30 21.3-18.4 13.2-56.5 38.9-88.6 43.3a114 114 0 0 0 .9 85.5H439q8.5-20.3 8.7-43.8c0-48.4-30.2-89.7-72.8-106.3" style="fill:#f2e7ab"/><path d="M638.5 897.1a64.4 64.4 0 0 1 56.2-63.8q-4-.6-8.3-.6a64.4 64.4 0 1 0 8.3 128.3c-31.7-4.1-56.2-31.1-56.2-63.9" style="fill:#756f46"/><path d="M694.7 833.3a64.4 64.4 0 0 0 0 127.7 64.4 64.4 0 0 0 0-127.7" style="fill:#f2e7ab"/><path d="M782.9 1035.5a41.5 41.5 0 0 1 36.1-41q-2.6-.5-5.3-.5a41.5 41.5 0 1 0 5.3 82.7 41.5 41.5 0 0 1-36.1-41.2" style="fill:#756f46"/><path d="M819 994.4a41.5 41.5 0 0 0 0 82.3 41.5 41.5 0 0 0 0-82.3" style="fill:#f2e7ab"/><path d="M628.8 1079.3a13.4 13.4 0 0 1 8.4-15.6l-1.7.3a13.4 13.4 0 1 0 7.7 25.5c-6.6.7-12.8-3.6-14.4-10.2" style="fill:#756f46"/><path d="M637.2 1063.7a13.4 13.4 0 0 0 6 25.8 13.4 13.4 0 0 0-6-25.8" style="fill:#f2e7ab"/><path d="M532.5 894.4a13.4 13.4 0 0 1 14.4-10.2l-1.6-.5a13.4 13.4 0 1 0-4.6 26.3c-6.2-2.3-9.8-9-8.2-15.6" style="fill:#756f46"/><path d="M547 884.2a13.4 13.4 0 0 0-6.3 25.8 13.4 13.4 0 0 0 6.2-25.8" style="fill:#f2e7ab"/><path d="M843.2 907.7a13.4 13.4 0 0 1 14.4-10.2l-1.6-.5a13.4 13.4 0 1 0-6.3 26l1.7.3c-6.2-2.4-9.8-9-8.2-15.6" style="fill:#756f46"/><path d="M857.6 897.5a13.4 13.4 0 0 0-6.2 25.8 13.4 13.4 0 0 0 6.2-25.8" style="fill:#f2e7ab"/><path d="M333.5 962.4q7.4 0 14.6 1a114 114 0 0 1 26.8 6.9q4.8-2.8 9.7-5.2c11.4-5.3 23.9-8.1 35.7-12.4 35.5-12.7 66-38.6 84.3-71.6 5.8-10.4 10.5-22.3 8.5-34-3.5-20.3-25.4-32.3-45.8-34.7-46.5-5.3-89.5 23-127.7 50l-51.4 36.4c-30.7 21.7-102.4 71.5-75.2 117.9q6.3 10.5 15.5 14.8a114 114 0 0 1 105-69" style="fill:#c4ba80"/><path d="M333.5 962.4q7.4 0 14.6 1a114 114 0 0 1 26.8 6.9q4.8-2.8 9.7-5.2c11.4-5.3 23.9-8.1 35.7-12.4 35.5-12.7 66-38.6 84.3-71.6 5.8-10.4 10.5-22.3 8.5-34-3.5-20.3-25.4-32.3-45.8-34.7-46.5-5.3-89.5 23-127.7 50l-51.4 36.4c-30.7 21.7-102.4 71.5-75.2 117.9q6.3 10.5 15.5 14.8a114 114 0 0 1 105-69" style="opacity:.7;fill:#fff"/><path d="M256.4 1034.9c15-38 49.8-66 91.7-71.4q-7.2-1-14.6-1c-47 0-87.5 28.4-105 69 8.2 4 17.7 4.8 28 3.4" style="fill:#756f46"/><path d="M256.4 1034.9c15-38 49.8-66 91.7-71.4q-7.2-1-14.6-1c-47 0-87.5 28.4-105 69 8.2 4 17.7 4.8 28 3.4" style="opacity:.7;fill:#fff"/><path d="M256.4 1034.9c32.1-4.4 70.2-30 88.5-43.3 10-7.2 19.6-15 30-21.3a114 114 0 0 0-26.8-6.8c-41.9 5.3-76.7 33.4-91.7 71.4" style="fill:#f2e7ab"/><path d="M256.4 1034.9c32.1-4.4 70.2-30 88.5-43.3 10-7.2 19.6-15 30-21.3a114 114 0 0 0-26.8-6.8c-41.9 5.3-76.7 33.4-91.7 71.4" style="opacity:.7;fill:#fff"/><path d="M1012 1000.4a521 521 0 0 0-34.2-52.8 521 521 0 0 1 34.1 52.8" style="opacity:.1;fill:#fff"/><path d="M1012 1000.4a521 521 0 0 0-34.2-52.8 521 521 0 0 1 34.1 52.8" style="opacity:.2"/><path d="m912.3 874.5-1-1z" style="opacity:.1;fill:#fff"/><path d="m912.3 874.5-1-1z" style="opacity:.2"/><path d="M1027.4 1029.9" style="opacity:.1;fill:#fff"/><path d="M1027.4 1029.9" style="opacity:.2"/><path d="M1021.9 1018.9a506 506 0 0 0-10-18.5 521 521 0 0 0-34.1-52.8 517 517 0 0 0-31.5-38.6 524 524 0 0 0-34-34.5l-1-1q13.9 21.4 25.6 44.2c31.4 61.5 51 130 55.4 202.7h68.6a514 514 0 0 0-33.5-90.5z" style="fill:#c4ba80"/><path d="M1021.9 1018.9a506 506 0 0 0-10-18.5 521 521 0 0 0-34.1-52.8 517 517 0 0 0-31.5-38.6 524 524 0 0 0-34-34.5l-1-1q13.9 21.4 25.6 44.2c31.4 61.5 51 130 55.4 202.7h68.6a514 514 0 0 0-33.5-90.5zM391.6 764.2s129-52.3 287-14.3c0 0-151.6 186.8-236.6 225-126.3 56.6-115.5-55.7-93.9-91.6C375 839 397 787 391.6 764.2" style="opacity:.2"/><path d="M426.1 604.8c-24.1 0-52-9-70.9-35.5-20.5-28.5-7.7-45.3 7.2-64.8 15.8-20.7 35.5-46.5 21.8-97.6q-16-59.9 4.2-81c12.8-13.2 31.2-9 32-8.8l-1.4 6.1c-.2 0-15.9-3.5-26.1 7.2-11.6 12-12.6 38-2.6 74.9 14.5 54-6.2 81.2-23 103-14.3 19-24.8 32.6-7 57.3 23.4 32.5 61.2 36.7 86.4 30.5 24.8-6.2 41.9-22 44.6-41.6l6.3.9c-3.1 22-22 40-49.3 46.8a93 93 0 0 1-22.2 2.6" style="fill:#b3b4b5"/><path d="M629.8 707.1h-2.5c3.3-11.9 7-28.2 10.7-46.4 12.4-60.6 25.2-141.2 25.2-141.2l-117 2.8-15.8-4c4.8 41 22.5 102.3 36.2 146a1968 1968 0 0 0 15 45.8l.1.2 3.7 41.3 89-6s7-37.3-44.6-38.5" style="fill:#dededf"/><path d="M562.1 637.6s34.7-2.8 81.5-2.6l2.3-13.8s-37.8-.6-88 2.3z" style="fill:#79262e"/><path d="M608.9 493.8H472l6.3 38.8c13.5 40 7 71.3-4.6 93.8l48.9 50.8c96.4-62.5 86.2-183.4 86.2-183.4" style="fill:#fff"/><path d="M448.8 659.5q-.2.1-.2.2l-30.2 21.8 50.9 73.4s35-13 10.8-56.9a202 202 0 0 0 42.6-20.8l-48.9-50.8a122 122 0 0 1-25 33" style="fill:#6d6e6e"/><path d="M540.5 532.3h-90.3a30.5 30.5 0 0 1-30.5-30.4V311.4c0-17.2 14-31.2 31.1-31.2l89.7 15.6z" style="fill:#dededf"/><path d="M419.7 363.3h80.9v8.4h-80.9zm0 95.8h80.9v8.4h-80.9z" style="fill:#b3b4b5"/><path d="M484.2 596.4s49.3 18.1 74.9 49.6l9.7-12s-37.6-40.2-83-49.7z" style="fill:#912b31"/><path d="M572.7 198.2c-73 0-88.2 60-88.2 60h-5.8a5 5 0 0 0-4.9 4.7v66.4c0 4.4 1.8 8.6 5 11.7l18.2 22.7a18 18 0 0 0 11.8 5.2l35.7 1.8c84.8 5.5 100.5-14.1 100.5-14.1 38.6-43.5 12.8-158.4-72.3-158.4" style="fill:#fff"/><path d="M633.7 249.2q4.4 16.7 4.2 42c0 26.5-56.1 66-136 27.4v3.7c0 9 5 17.1 13 21.2 81.8 41.5 139.6 1.3 139.6-25.6 0-34.5-4.7-56.4-20.8-68.7" style="fill:#2f2e2e"/><path d="M637.9 291.2q.1-25.3-4.2-42c-11.5-8.7-28.7-12.5-54.3-12.5-61.5 0-77.5 54.1-77.5 54.1v27.8c79.9 38.5 136-.9 136-27.4" style="fill:#464648"/><path d="m535.1 264.6 8-5.6c5.8-4.2 12.5-8.6 19.7-7.7 3.1.3 6.5 2.2 7 5.3q.3 2.7-1.3 5.3c-2.8 5-7.5 9-13 11q-2.7.9-5.5 2c-2.2 1-4.1 2.6-6.1 4-4.4 3.2-16.2 11-20.4 3.9-4.2-7.2 6.9-14.9 11.6-18.2" style="opacity:.7;fill:#fff"/><path d="M511 272.5s28.3-56.1 110.6-32.2c16.3 5.2 24.7 24.5 24.7 24.5s-14-40.3-68.1-40.2c-55.6 3.5-65 40.5-67.2 48" style="fill:#8a8c8e"/><path d="M510.5 273.5s28.8-52.4 111-28.5c16.4 5.2 24.2 18.6 24.2 18.6s-13.3-34.4-67.5-34.3c-55.6 3.6-65.5 36.8-67.7 44.2" style="fill:#59595b"/><path d="M511 272.5s28.3-53.8 110.6-29.9c16.3 5.3 23.5 20 23.5 20s-12.7-35.8-66.9-35.6c-55.6 3.5-65 38.1-67.2 45.5" style="fill:#dededf"/><circle cx="502.8" cy="284.1" r="14.2" style="fill:#6d6e6e"/><path d="M509.6 274.5a12 12 0 0 0-6.8-2.2 11.7 11.7 0 1 0 6.8 2.2" style="fill:#fff"/><path d="M509.6 274.5a12 12 0 0 1 2.3 7 11.7 11.7 0 0 1-18.7 9.4 11.7 11.7 0 1 0 16.4-16.4" style="opacity:.2;fill:#2f2e2e"/><path d="M645 356.6s69 37 95.9-59.2l35.5 3.3s12.7 130-122 125.5l3.2 93.3h5.6v24.8H488.6l15.3-183 93.4 5.5z" style="fill:#fff"/><path d="M493.2 351.5s-85.1 61.5-32 203.4H509s-22.4-89.1 5-134.9a35 35 0 0 0 4.9-15l3.7-42.5z" style="fill:#c8c9cb"/><path d="M493.2 351.5s-92.2 61.5-39 203.4h47.7s-23-91.8 6.3-136.9q2.9-4.3 4-9.3l10.4-46.2z" style="fill:#fff"/><path d="M645 356.6s-46.4 28.6-112.7 6.4v7s60.6 27.7 120.2-10.6z" style="fill:#c8c9cb"/><circle cx="483.2" cy="406.3" r="16.6" style="fill:#dededf"/><circle cx="483.2" cy="406.3" r="14.1" style="fill:#76a39a" transform="rotate(-76.7 483.2 406.3)"/><path d="m702.2 356.6 31.4 49.7s-11 9-25.8 13c0 0-4-10.9-5.6-27.2a305 305 0 0 1-1.9-34.5c.8-.2 2-1 2-1m74-36.5-39.5-9.9 2.6-7.9 37.3 6z" style="fill:#c8c9cb"/><path d="M654.5 426.2v-10.6S766 430.5 770.4 300.1l6 .6s13.3 130.7-122 125.5" style="opacity:.2;fill:#2f2e2e"/><path d="m493.5 474.2-55.8-1.9s-1-15.2 1.3-25.4l54.8 21.7zm-43.7 68.5h49.5l-2-12h-51.2zm47.5-31h160.3v7.8H497.3z" style="fill:#c8c9cb"/><path d="m790.7 263.7-2.9-1.6a4 4 0 0 0-5 .8l-6 7 1.6-15.5a4 4 0 0 0-3.5-4.7l-2.6-.3a4 4 0 0 0-2 .3 4 4 0 0 0-2 2.3l-5.9 16.6V246a4 4 0 0 0-4-3.9h-3.1a4 4 0 0 0-3.9 3.4l-1.4 20.6-7.3-15.2a4 4 0 0 0-7.7 1.5l5.9 24.2-6-5.9a4 4 0 0 0-5-.4l-2.5 1.8a4 4 0 0 0-.8 5.5l14.3 19.7 29.5 2.7 6 .6 15.8-31.7a4 4 0 0 0-1.5-5.3M454.2 555s-7.3 28 3.3 32.7 29.8 13 45.3 4.7c6.4-3.5 1-23.8 1-23.8s6.6 4.6 13.1 4.4 12-11-7.9-18z" style="fill:#6d6e6e"/><path d="M529.5 418.4h5.6v96.2h-5.6z" style="fill:#c8c9cb"/><path d="M532.3 466.5h123.6v4.8H532.3z" style="fill:#c8c9cb"/><path d="M579.7 466.5h4.5v49.1h-4.5zm18-48H613v15.2h-15.2zm27.3 0h15.3v36H625zm-27.2 20.7H613v15.3h-15.2zM582 444h-24.4a3.7 3.7 0 0 1-3.7-3.7v-18.1a3.7 3.7 0 0 1 3.7-3.7h24.4a3.7 3.7 0 0 1 3.6 3.7v18.1a3.7 3.7 0 0 1-3.6 3.7" style="fill:#c8c9cb"/><path d="m581.7 710.3 3.7 41.3 89-6s7-37.3-44.6-38.5h-2.5c3.3-11.9 5.3-20 9-38.2l-67.5 2.3c6.5 20.5 9.9 30.1 12.9 39" style="fill:#6d6e6e"/></svg>
