<svg xmlns="http://www.w3.org/2000/svg" width="178px" height="178px" viewBox="0 0 178 178" enable-background="new 0 0 178 178" xml:space="preserve"><rect width="100%" height="100%" fill="#00BFFF"/><path fill="#CBD2EB" d="M93.4 112.7a98 98 0 0 0 3.6-8.4q.3 2 .5 3.8l1 7.6c3 16.6 8.7 39 23.4 48.8a42 42 0 0 0 12.8 5.5c12.9 3.4 35.6 3.6 48.7 1 1.2-.3 4.6-.8 5.5-1.3.2.6.2 7.7 0 8.2v.1H68c8.7-9.8 13-20.8 16.1-33.3a144 144 0 0 0 2.8-14.9q.5-3.2.6-6.5 0-1.6.4-3.4l.3-.5.6.7.8-1q2-3 3.7-6.4"/><path fill="#F8F7F1" d="M89.7 119.2c.4.8.5 4.3.6 5.5q.2 3 .6 5.8c2.2 14.6 6.5 31.4 15.5 43.4q1.5 2.1 3.5 4.1H68c8.7-9.8 13-20.8 16.1-33.3a144 144 0 0 0 2.8-14.9q.5-3.2.6-6.5 0-1.6.4-3.4l.3-.5.6.7z"/><path fill="#DFE4F3" d="M89.7 119.2q2-3.2 3.7-6.5l.5 5.8 1.2 8.4c2.6 16.4 8.2 36.1 21.7 46.7q3.3 2.4 6.8 4.4H110l-3.5-4.1c-9-12-13.3-28.8-15.5-43.4l-.6-5.8c-.1-1.2-.2-4.7-.6-5.5"/><path fill="#5563AD" d="m81.2 22.4 2.5.6c3 .8 6.5.8 9.6.4l3.7-.8a92 92 0 0 1 3.9 51.1c-1.1 4.6-2 9.3-3.7 13.8l-.1.6c-.2.7-.2 1.3-.9 1.7l-1 .4-1.6.2c-3 .3-6.1 0-9.1 0l-1.9-.3q-.8-.1-1.4-.7t-.4-1.4l-.1-.4c-.2-1.2-1-3.5-1.5-4.9a84 84 0 0 1-2.1-8.9c-.7-2.3-.8-5-1.1-7.4l-.5-4.6-.2-4.7v-4.6l.2-4.6.5-4.7.7-4.6a93 93 0 0 1 2-9z"/><path fill="#424CA0" d="m81.2 22.4 2.5.6q-1.5 6.3-2.8 12.7a121 121 0 0 0 1 42q.8 4.3 1.8 8.4l.5 2 .1.2-3.5-.3-.1-.4c-.2-1.3-1-3.5-1.5-4.9a84 84 0 0 1-2.1-8.9c-.7-2.3-.8-5-1.1-7.4l-.5-4.6-.2-4.7v-4.6l.2-4.6.5-4.7.7-4.6a93 93 0 0 1 2-9z"/><path fill="#2A3579" d="m80.8 88 3.5.3q4.4.1 8.7 0l4-.2q.1 1-.8 1.7-.3.3-1 .4l-1.6.2c-3 .3-6.1 0-9.1 0l-1.9-.3q-.8-.1-1.4-.7t-.4-1.4M88.5 33h1.9l.4.1.7.3h.4l1 .6q.2 0 .3.2l.7.4.2.3.6.5a8 8 0 0 1 1.8 3l.2.7.1.7V41l-.1 1.5-.4 1.1-.1.4-.4.7-.4.6a8 8 0 0 1-3.2 2.7l-.7.3-1.9.3h-1.5l-1.1-.2a8 8 0 0 1-4.8-3.7l-.3-.7-.6-1.8v-2.3l.1-.8.2-.7.3-.8.2-.3.3-.7 1.5-1.7.6-.5.7-.4.7-.4.7-.2 1.1-.3h.4z"/><path fill="#879FD1" d="M88.3 35h1.6l.6.1.3.1.5.2.2.1 1.4 1 .2.1.2.3.5.6.2.3.3.7.2.5.1.3.1.8v1.7l-.4 1.1-1 1.7-.2.2-.2.2-.7.5-.7.4-.5.2-.5.2h-.6l-.8.2h-.6l-.6-.1-.5-.2h-.3L87 46l-.5-.2-.5-.3-.7-.5-.4-.4-.5-.7-.4-.7-.4-1.1-.2-.9v-1.1l.1-.6.2-.5v-.3l.2-.2.3-.8.4-.5.3-.4.4-.4.5-.4.4-.3.5-.2 1.1-.4h.3z"/><path fill="#CBD2EB" d="M89.6 35.9h1c.7.2 1.8.9 2.2 1.6q.3.5.1.8-.2.6-.8.8h-1q-1.3-.3-2-1.3-.3-.4-.3-1 .2-.6.8-1"/><path fill="#E2C64C" d="M89 72.2c.8.6 1.3 2 1.6 3q1.5 0 2.9.5l-2 2q.3 1.5.3 3.1-1.5-.3-2.8-1.3c-.5.5-1.4 1.2-2.1 1.3q-.4 0-.6-.2c-.3-.7 0-2 .2-2.8L85 76.3q-.3-.2-.2-.6c.6-.5 2-.4 2.8-.4q.5-1.7 1.4-3"/><path fill="#CBD2EB" d="M80.8 104.2q1.6 4.4 3.6 8.6 1.7 3.4 3.9 6.6l-.3.5q-.3 1.6-.4 3.4-.2 3.3-.6 6.5a144 144 0 0 1-2.8 14.9 75 75 0 0 1-16 33.3H-11v-8.2q3.1.9 6.5 1.4c14.8 2.3 37.6 2.5 51.8-2.4q5.3-1.7 9.9-5c13.7-10.2 19.5-32.2 22.2-48.3l1-7 .4-4.2z"/><path fill="#DFE4F3" d="M84.4 112.8q1.7 3.4 3.9 6.6l-.3.5q-.3 1.6-.4 3.4-.2 3.3-.6 6.5a144 144 0 0 1-2.8 14.9 75 75 0 0 1-16 33.3h-14l3-1.7q2.1-1.2 3.9-2.6C74.8 163 80 143.5 82.7 127l1.1-8.3z"/><path fill="#E2C64C" d="m82.6 90.1 1.9.2q4.5.4 9 .1l1.8-.2c2.2 3.2 3 7.2 2.4 11l-.7 3a98 98 0 0 1-3.6 8.5l-3.7 6.5-.8 1-.6-.8q-2.2-3.2-3.9-6.6-2-4.2-3.6-8.6l-.6-2.6c-.8-4 .2-8.1 2.4-11.5"/><path fill="#C58B38" d="M84.5 90.3q4.5.4 9 .1l.9 2.9c1 6-2 13.6-5.3 18.6a32 32 0 0 1-4.4-8.5c-1.4-4.1-2-9-.2-13"/><path fill="#2A3579" d="M80.7 87.6a15 15 0 0 0-3.7 5.2c-.7 1.5-1.5 4.9-2.5 5.8l-.6.3-.6-.4q-.7-1.2-1-2.5a27 27 0 0 1-1.8-10.8c.5-4.3 3.3-8.7 6.6-11.4a84 84 0 0 0 2.1 9c.4 1.3 1.3 3.5 1.5 4.8m20.2-13.9c3.5 3.6 6.7 7.7 6.7 13 0 2.3-1.5 10.3-3 12l-.5.2q-.5-.1-.8-.5-.6-1.2-1-2.6a17 17 0 0 0-5-8.3c1.6-4.5 2.5-9.2 3.6-13.8"/><path fill="#E2C64C" d="M88.1 10q.5-.5 1.1-.4c1.1.2 2.2 1.7 2.8 2.6 1.8 2.6 4 7.3 5 10.4l-3.7.8c-3.1.4-6.6.4-9.6-.4q.2-1.2.7-2.5l2.6-7.2c.2-.5 1.2-2.7 1.2-3z"/><path fill="#D4AB34" d="M88.1 10v.2c.1.4-.9 2.6-1.1 3.1l-2.6 7.2c-.2.8-.7 1.7-.7 2.5l-2.5-.6c1.6-3.5 3.7-10 6.9-12.4"/><path fill="#DFE4F3" d="M147.4 42.3h3l.5.2 1.1.3 2 .8 2 1.3q3.9 3.5 4.1 9 2.3-.7 4.5.4c1.7.9 2.3 2.4 2.8 4.1q1.6-.2 3.3.3l.2.1.7.4.5.3.4.4.2.1.1.2.2.2.2.3.3.4.2.5a5 5 0 0 1 0 3.7 5 5 0 0 1-2.9 2.8c-1.8.7-4.3.7-6.2 0l-2.2 1.1q-3.5 1-6.7-.7-1.2 1-2.5 1.6-3.2 1.2-6.4-.3-1.4-.6-2.3-1.7l-.6.5-.6.4-2.2 1-1.1.3h-.7q-3.6.2-6.3-2.3h-.1a10 10 0 0 1-7.7.7q-2.6-.8-3.6-3.1l-.3-.7-.1-.5V64l-.1-.2v-1.6l.3-.7a6 6 0 0 1 3-3.2q2.6-1 5.1 0 0-.5.2-.9.3-2.2 2.2-3.5 2.3-1.3 5-.7c.4-2.6 1-4.9 2.7-7q3-3.6 7.8-4M42.4 6.5c2.5-.2 5.2.4 7.3 1.8q3.7 2.9 4.3 7.4 2.7-.5 5.1.8 2 1.3 2.5 3.9 1.2.1 2.3.7a5 5 0 0 1 2.5 3l.2 1v1.3l-.2.5-.1.5-.2.4-.1.3a7 7 0 0 1-4.5 3.3q-4.6 1.2-8.8-1.2h-.1a8.7 8.7 0 0 1-12 1.2L40 31a9 9 0 0 1-6.2 2.3 8 8 0 0 1-6-3l-.2.1a9 9 0 0 1-7.2.2 5 5 0 0 1-3.1-2.9l-.2-.4-.1-.5v-2.1l.2-.4.1-.2a5 5 0 0 1 3-2.7q2.6-1 5.1.2 0-1.2.5-2.5a6 6 0 0 1 3-3.4 6 6 0 0 1 4.6-.3q.4-2.6 1.8-4.7 2.7-3.5 7-4M33 79q4-.1 7 2.4 3 3.1 3 7.4h.2a5 5 0 0 1 3.9.1q1.5.9 2 2.7 1.3 0 2.4.5 1.7.7 2.4 2.5a4 4 0 0 1-.2 3.5q-1.2 2-3.4 2.8c-2.3.8-4.9.4-7-.7a7.4 7.4 0 0 1-10 0l-.2.1a7 7 0 0 1-5 2 7 7 0 0 1-5-2q-1.5.7-2.9 1a8 8 0 0 1-6-1.2q-1.6-1.2-2-3.2v-.8l.2-.9.7-1.5c1-1.4 2.7-1.8 4.3-2q.4-2.2 2.4-3.5 2.1-1 4.2-.2.3-3.1 2.2-5.7c1.8-2.2 4-3 6.8-3.3"/></svg>
