<svg xmlns="http://www.w3.org/2000/svg" xmlns:xlink="http://www.w3.org/1999/xlink" xml:space="preserve" viewBox="0 0 355 355"><defs><path id="a" d="M0 0h355v355H0z"/></defs><clipPath id="b"><use xlink:href="#a" style="overflow:visible"/></clipPath><path d="M0 0h355v355H0z" style="clip-path:url(#b);fill:#18c0f0"/><g style="clip-path:url(#b)"><linearGradient id="c" x1="269.6" x2="303" y1="109.7" y2="208" gradientUnits="userSpaceOnUse"><stop offset="0" style="stop-color:#fff"/><stop offset=".1" style="stop-color:#f9f9f9"/><stop offset=".2" style="stop-color:#e8e8e8"/><stop offset=".4" style="stop-color:#ccc"/><stop offset=".5" style="stop-color:#a5a5a5"/><stop offset=".7" style="stop-color:#727272"/><stop offset=".9" style="stop-color:#363636"/><stop offset="1" style="stop-color:#000"/></linearGradient><path d="M260.2 115s2.7-19.5 25-18.3c22.4 1.3 22.4 24.2 22.4 24.2s8-.2 11.9 6.8c0 0 12.7-2.1 14.2 9.9 1.7 14-15.8 13.7-15.8 13.7s-11.6 18-26.7 2.5c0 0-8 7.4-17.8 1.6 0 0-3.5 7-12.3 3.7s-8.8-8.4-8.8-8.4-22.8 4.6-27.3-10.6c-3.8-13.3 16.1-20 21.7-16.3 0 0 1.3-13 13.5-8.8" style="opacity:.5;fill:url(#c)"/><path d="M258.8 112.8s2.7-19.5 25-18.3 22.4 24.2 22.4 24.2 8.1-.2 11.9 6.8c0 0 12.7-2.1 14.2 9.8 1.7 14-15.8 13.7-15.8 13.7s-11.6 18.2-26.7 2.6c0 0-8 7.4-17.8 1.6 0 0-3.5 7-12.3 3.7s-8.8-8.4-8.8-8.4-22.8 4.6-27.2-10.6c-4-13.3 16-20 21.6-16.3 0 0 1.3-13 13.5-8.8" style="fill:#dceeeb"/><path d="M332.3 135.3c-.6-5.2-3.5-7.8-6.5-9q2 2 2.7 6.2c1.6 13-14.7 12.7-14.7 12.7s-10.8 16.9-24.8 2.4c0 0-7.4 6.8-16.6 1.5 0 0-3.2 6.5-11.4 3.4-8.2-3-8.2-7.8-8.2-7.8s-21.2 4.3-25.4-9.9c-1.4-5 .9-9.1 4.5-11.9-5.7 2.8-10.3 8-8.2 15 4.4 15.2 27.2 10.6 27.2 10.6s0 5.1 8.8 8.4 12.3-3.7 12.3-3.7c9.9 5.8 17.8-1.6 17.8-1.6 15.1 15.6 26.7-2.6 26.7-2.6s17.5.3 15.8-13.7" style="fill:#bee2e9"/></g><g style="clip-path:url(#b)"><linearGradient id="d" x1="95.6" x2="132.8" y1="32.1" y2="141.7" gradientUnits="userSpaceOnUse"><stop offset="0" style="stop-color:#fff"/><stop offset=".1" style="stop-color:#f9f9f9"/><stop offset=".2" style="stop-color:#e8e8e8"/><stop offset=".4" style="stop-color:#ccc"/><stop offset=".5" style="stop-color:#a5a5a5"/><stop offset=".7" style="stop-color:#727272"/><stop offset=".9" style="stop-color:#363636"/><stop offset="1" style="stop-color:#000"/></linearGradient><path d="M85.1 38s3-21.7 28-20.3c24.8 1.3 24.8 27 24.8 27s9-.3 13.3 7.5c0 0 14.2-2.4 15.8 11 2 15.6-17.5 15.3-17.5 15.3s-13 20.2-29.8 2.8c0 0-8.9 8.2-20 1.8 0 0-3.8 7.8-13.6 4.1-9.8-3.6-9.8-9.4-9.8-9.4S50.9 83 45.9 66c-4.3-14.8 18-22.2 24.2-18.1 0 0 1.4-14.4 15-9.9" style="opacity:.5;fill:url(#d)"/><path d="M83.6 35.6s3-21.8 27.9-20.4 24.9 27 24.9 27 9-.2 13.2 7.5c0 0 14.2-2.3 15.9 11 1.9 15.6-17.6 15.3-17.6 15.3s-13 20.2-29.8 2.8c0 0-8.8 8.2-19.9 1.8 0 0-3.8 7.8-13.6 4.2-9.9-3.7-9.9-9.4-9.9-9.4s-25.4 5-30.3-11.8C40 48.8 62.3 41.3 68.5 45.4c0 0 1.4-14.4 15-9.8" style="fill:#dceeeb"/><path d="M165.5 60.7c-.7-5.9-4-8.7-7.2-10q2.2 2.2 3 6.8c1.7 14.5-16.4 14.2-16.4 14.2s-12 18.8-27.7 2.6c0 0-8.3 7.7-18.5 1.7 0 0-3.6 7.3-12.7 3.9S76.8 71 76.8 71s-23.6 4.8-28.2-11c-1.7-5.6 1-10.2 5-13.2-6.4 3-11.5 8.8-9.2 16.7 5 16.9 30.3 11.8 30.3 11.8s0 5.7 9.9 9.4c9.8 3.6 13.6-4.2 13.6-4.2a17 17 0 0 0 19.9-1.8C135 96.2 147.9 76 147.9 76s19.5.3 17.6-15.3" style="fill:#bee2e9"/></g><g style="clip-path:url(#b)"><linearGradient id="e" x1="66.8" x2="102.4" y1="186.6" y2="291.5" gradientUnits="userSpaceOnUse"><stop offset="0" style="stop-color:#fff"/><stop offset=".1" style="stop-color:#f9f9f9"/><stop offset=".2" style="stop-color:#e8e8e8"/><stop offset=".4" style="stop-color:#ccc"/><stop offset=".5" style="stop-color:#a5a5a5"/><stop offset=".7" style="stop-color:#727272"/><stop offset=".9" style="stop-color:#363636"/><stop offset="1" style="stop-color:#000"/></linearGradient><path d="M56.8 192.3s2.9-20.8 26.7-19.5 23.8 25.9 23.8 25.9 8.6-.2 12.7 7.2c0 0 13.6-2.3 15.1 10.5 1.9 15-16.8 14.6-16.8 14.6s-12.4 19.3-28.5 2.7c0 0-8.4 7.9-19 1.7 0 0-3.7 7.5-13 4-9.5-3.5-9.5-9-9.5-9s-24.3 4.9-29-11.3c-4.2-14.2 17.1-21.3 23-17.4 0 0 1.4-13.8 14.5-9.4" style="opacity:.5;fill:url(#e)"/><path d="M55.3 190S58.2 169 82 170.4s23.8 25.8 23.8 25.8 8.6-.2 12.7 7.2c0 0 13.6-2.3 15.2 10.5 1.8 15-16.9 14.6-16.9 14.6s-12.3 19.4-28.5 2.7c0 0-8.4 8-19 1.8 0 0-3.6 7.4-13 4-9.5-3.6-9.5-9-9.5-9s-24.3 4.8-29-11.4c-4.2-14.1 17.1-21.3 23-17.3 0 0 1.4-13.8 14.5-9.5" style="fill:#dceeeb"/><path d="M133.7 214c-.7-5.6-3.8-8.3-7-9.6q2.3 2.2 2.9 6.6c1.7 13.8-15.6 13.6-15.6 13.6s-11.6 18-26.6 2.5c0 0-7.8 7.3-17.7 1.6 0 0-3.4 6.9-12.1 3.6-8.8-3.2-8.8-8.3-8.8-8.3s-22.6 4.5-27-10.5c-1.6-5.5.9-9.8 4.7-12.7-6 3-11 8.4-8.7 16 4.7 16.1 29 11.2 29 11.2s0 5.5 9.4 9 13.1-4 13.1-4c10.6 6.2 19-1.7 19-1.7 16.2 16.7 28.5-2.7 28.5-2.7s18.7.3 16.9-14.6" style="fill:#bee2e9"/></g><path d="M355.7 371.9v-53.3a146 146 0 0 1-34.2 7.4c-28.4 2.4-63.6 2.4-87.6-13a93 93 0 0 1-38.8-54.3c-3.5-13.3-6.8-27-8.3-40.6-1.5-14.2-.9-28.5-1.2-42.7-.7-28.1-3.8-56.1-4.2-84.3 0-1.6-2.2-2.2-3.4-1.5-1.2-.7-3.3-.1-3.3 1.5-.4 28.2-3.5 56.2-4.2 84.3-.4 14.2.2 28.5-1.3 42.7a269 269 0 0 1-8.2 40.6 93 93 0 0 1-38.8 54.3c-24 15.4-59.2 15.4-87.7 13-12.4-1-25-4-36.5-8.2v54z" style="opacity:.5;clip-path:url(#b);fill:#dceeeb"/><path d="M356.3 363.7c1.4-4.2 5.7-15.3 1.6-18.8-3.3-2.8-17.8.9-22.2 1.1q-14 .7-28 .7c-18.5 0-37-.2-55.4-1.6-15.8-1.2-32-2.5-43.5-14.6-11.3-12-16.8-29-19.8-45a343 343 0 0 1-5.5-38c-1-13.2-.6-26.5-.9-39.7-.4-26.3-2.5-52.5-2.8-78.8 0-1.5-1.4-2.1-2.2-1.4-.8-.7-2.2-.1-2.2 1.4-.3 26.3-2.3 52.5-2.8 78.8-.2 13.2.2 26.5-.8 39.8-1 12.7-3.2 25.5-5.5 38a102 102 0 0 1-15.9 39.3c-14.8 21.3-43.3 20.4-66.7 21.3q-36.7 1.4-73.2-.8-6.3-.3-12.5-1c-8.3-1-6.8 19.3-6.8 19.3h365.1" style="clip-path:url(#b);fill:#dceeeb"/><g style="clip-path:url(#b)"><path d="M178.4 244.5c4.3-10.9 10.6-24.7 12-36.5 1.1-8.2.5-23.8-9.5-27.5-9-3.3-15.3 5.7-16.3 13.5-1.6 11.9 4 24.8 8.2 35.6z" style="fill:#fdef6c"/><path d="M178 235c4.3-10.8 10.7-24.7 12.2-36.4 1-8.2.4-23.9-9.7-27.5-9-3.3-15.2 5.6-16.3 13.5-1.5 11.9 4.2 24.7 8.2 35.6 1 2.6 5.3 14.1 5.7 14.8" style="opacity:.7;fill:#fffab8"/><path d="M178 224c3.3-8.2 6.6-17 7.7-26 .8-6.2 1.9-20-5.8-22.8-6.9-2.5-11.7 4.3-12.5 10.3-1.1 9 3.2 19 6.3 27.2.8 2 4.7 10.5 4.3 11.4" style="fill:#f6891f"/><linearGradient id="f" x1="148.3" x2="170.7" y1="170.9" y2="179.5" gradientUnits="userSpaceOnUse"><stop offset=".2" style="stop-color:#9c79b6"/><stop offset=".3" style="stop-color:#9a73ba"/><stop offset=".4" style="stop-color:#8d4cd2"/><stop offset=".4" style="stop-color:#8535e1"/><stop offset=".5" style="stop-color:#822ce7"/><stop offset=".6" style="stop-color:#7429cd"/><stop offset=".8" style="stop-color:#52218a"/><stop offset=".9" style="stop-color:#331a4f"/></linearGradient><path d="M166.6 169.7a78 78 0 0 1-3.2-12.6c-1 1.3-5.7 6.8-8.9 12.5.5 4.3 1.7 11.8 4.6 25q1 .2 2.2.3a56 56 0 0 1 8.5-23.1c-2.2-1-3.2-2-3.2-2" style="fill:url(#f)"/><path d="m166.5 169.8-1-3.1-.3-.8-.3-.8-.4-1.5-.3-.8-.2-.8-.4-1.6-.1-.8-.2-.8-.3-1.6.7.2-1.2 1.5-1.2 1.4-1.1 1.6-1.2 1.5-1 1.5q-.4.4-.6.8l-.6.8-.5.8-.5.8-1 1.6v-.1l.3 3.1.2 1.6.3 1.6.3 1.5.2 1.6.7 3.1.7 3.1.3 1.6.4 1.5 1.4 6.2-.4-.3h.5l.6.1 1 .1-.5.4.5-3 .3-1.6.4-1.5.4-1.5.4-1.5.5-1.5.2-.8.3-.7.6-1.4.3-.8.3-.7.7-1.4.3-.7.4-.7.7-1.4.8-1.3.8-1.3 1-1.3v.3l-.4-.2-.5-.3-.4-.2-.4-.3-.4-.3-.4-.3zm.1 0 .7.5q.3 0 .4.3l.4.2.5.2.4.2.4.2.5.2v.3l-.7 1.3-.8 1.4-.7 1.4-.7 1.3-.3.7-.3.7-.6 1.5-.3.7-.3.7-.5 1.4-.2.8-.3.7-.4 1.5-.4 1.5-.4 1.4-.4 1.5-.3 1.5-.5 3v.1a1 1 0 0 1-.6.4l-1-.1-.6-.1-.6-.1-.3-.4-1.3-6.2-.3-1.6-.2-1.6-.6-3.1-.5-3.2-.2-1.5-.3-1.6-.3-1.6-.2-1.5-.5-3.2v-.1l1-1.7.5-.8.5-.9.5-.8.5-.8 1-1.6 1.2-1.6 1.2-1.5 1.2-1.5 1.2-1.5a.4.4 0 0 1 .7.2l.3 1.6v.8l.3.8.3 1.6.1.8.2.8.4 1.6.2.8.2.8z"/><linearGradient id="g" x1="147.9" x2="170.8" y1="170.8" y2="179.5" gradientUnits="userSpaceOnUse"><stop offset=".1" style="stop-color:#fff"/><stop offset=".6" style="stop-color:#737171"/><stop offset="1" style="stop-color:#737171"/></linearGradient><path d="M166.6 169.7a78 78 0 0 1-3.2-12.6l-1.5 2c3.5 21-.1 21-1.6 31.5-.2 1-.8.3-1.1-.4l-2.4-6.8 2.3 11.2q1 .2 2.2.3a56 56 0 0 1 8.5-23.1c-2.2-1-3.2-2-3.2-2" style="opacity:.7;fill:url(#g)"/><radialGradient id="h" cx="150.7" cy="174.4" r="16.6" fx="144.7" fy="169.1" gradientUnits="userSpaceOnUse"><stop offset=".5" style="stop-color:#fff"/><stop offset="1" style="stop-color:#000"/></radialGradient><path d="M159.2 191.5s-3.7-18.6-4-21 6.6-10.3 6.6-10.3-4.4 7-4.8 9.4c-.5 2.5 2.2 21.9 2.2 21.9" style="fill:url(#h)"/><linearGradient id="i" x1="60" x2="82.5" y1="170.9" y2="179.5" gradientTransform="matrix(-1 0 0 1 266.8 0)" gradientUnits="userSpaceOnUse"><stop offset=".2" style="stop-color:#9c79b6"/><stop offset=".3" style="stop-color:#9a73ba"/><stop offset=".4" style="stop-color:#8d4cd2"/><stop offset=".4" style="stop-color:#8535e1"/><stop offset=".5" style="stop-color:#822ce7"/><stop offset=".6" style="stop-color:#7429cd"/><stop offset=".8" style="stop-color:#52218a"/><stop offset=".9" style="stop-color:#331a4f"/></linearGradient><path d="M188.4 169.7a78 78 0 0 0 3.2-12.6 89 89 0 0 1 8.9 12.5c-.5 4.3-1.7 11.8-4.6 25q-1 .2-2.2.3a56 56 0 0 0-8.5-23.1c2.2-1 3.2-2 3.2-2" style="fill:url(#i)"/><path d="m188.4 169.7.8-3.1.2-.8.2-.8.4-1.6.2-.8.1-.8.3-1.6.2-.8.1-.8.3-1.6a.4.4 0 0 1 .7-.2l1.2 1.5 1.2 1.5 1.2 1.5 1.1 1.6 1 1.6.6.8.5.8.5.9.5.8 1 1.7v.1l-.5 3.2-.2 1.5-.3 1.6-.3 1.6-.2 1.5-.5 3.2-.6 3.1-.2 1.6-.3 1.6-1.3 6.2-.3.4h-.6l-.5.2h-1.2l-.5-.3-.5-3-.3-1.6-.4-1.5-.4-1.4q0-.8-.4-1.5l-.4-1.5-.3-.7-.2-.8-.5-1.4-.3-.7q0-.4-.3-.7l-.6-1.5-.3-.7-.3-.7-.7-1.3-.7-1.4-.8-1.4-.8-1.3.1-.3.5-.2q.2 0 .4-.2l.4-.2.4-.2.5-.2.3-.3zm0 0-.6.7-.4.3-.4.3-.4.3-.4.2-.5.3-.4.2v-.3l1 1.3.8 1.3.8 1.3.7 1.4.4.7.3.7.7 1.4q0 .4.3.7l.3.8.6 1.4.3.8.2.7.5 1.5.4 1.5.4 1.5.4 1.5.3 1.5.5 3.1-.5-.4h1l.6-.2h.5l-.4.3 1.4-6.2.4-1.5q0-.8.3-1.6l.7-3.1.7-3.1.2-1.6.3-1.5.3-1.6.2-1.6.3-3.1-1-1.5-.5-.8-.5-.8-.6-.8-.5-.8-1.1-1.5-1.2-1.5-1.1-1.5-1.2-1.5-1.2-1.5.7-.2-.3 1.6-.2.8-.1.8-.4 1.6-.2.8-.3.8-.4 1.5-.3.8-.2.8z"/><linearGradient id="j" x1="1789.7" x2="1812.5" y1="170.8" y2="179.5" gradientTransform="matrix(-1 0 0 1 1996.8 0)" gradientUnits="userSpaceOnUse"><stop offset=".1" style="stop-color:#fff"/><stop offset=".6" style="stop-color:#737171"/><stop offset="1" style="stop-color:#737171"/></linearGradient><path d="M188.4 169.7a78 78 0 0 0 3.2-12.6l1.5 2c-3.5 21 .1 21 1.6 31.5.2 1 .8.3 1.1-.4q1.4-3.3 2.4-6.8l-2.3 11.2q-1 .2-2.2.3a56 56 0 0 0-8.5-23.1c2.2-1 3.2-2 3.2-2" style="opacity:.7;fill:url(#j)"/><radialGradient id="k" cx="1792.5" cy="174.4" r="16.6" fx="1786.5" fy="169.1" gradientTransform="matrix(-1 0 0 1 1996.8 0)" gradientUnits="userSpaceOnUse"><stop offset=".5" style="stop-color:#fff"/><stop offset="1" style="stop-color:#000"/></radialGradient><path d="M195.8 191.5s3.7-18.6 4-21-6.6-10.3-6.6-10.3 4.4 7 4.8 9.4-2.2 21.9-2.2 21.9" style="fill:url(#k)"/><linearGradient id="l" x1="165.2" x2="189.6" y1="42.5" y2="42.5" gradientUnits="userSpaceOnUse"><stop offset="0" style="stop-color:#fffbce"/><stop offset=".2" style="stop-color:#fd0"/><stop offset=".4" style="stop-color:#ffc300"/><stop offset=".8" style="stop-color:#ff8000"/><stop offset="1" style="stop-color:#f50"/></linearGradient><path d="M189.6 54.5c-4.4-13.5-9.2-24-11.6-24h-.9c-2.8 0-7.6 10.5-12 24.1a42 42 0 0 1 24.5 0" style="fill:url(#l)"/><linearGradient id="m" x1="156.2" x2="198.9" y1="103.1" y2="103.1" gradientUnits="userSpaceOnUse"><stop offset="0" style="stop-color:#052f7c"/><stop offset=".3" style="stop-color:#004dd7"/><stop offset="1" style="stop-color:#081f4a"/></linearGradient><path d="M178 30.4h-.9c-6 0-20.9 47.4-20.9 70.8a294 294 0 0 0 9.8 71.2c3.9 2.1 7.3 3.3 12.4 3.3 4.3 0 7-.8 10.4-2.3 2.2-7.4 10.1-42.6 10.1-72.2 0-23.4-15.7-70.8-21-70.8" style="fill:url(#m)"/><linearGradient id="n" x1="178.7" x2="175.8" y1="145.7" y2="152.3" gradientUnits="userSpaceOnUse"><stop offset="0" style="stop-color:#f4f2cb"/><stop offset=".1" style="stop-color:#f5f0b9"/><stop offset=".4" style="stop-color:#f7ea8b"/><stop offset=".7" style="stop-color:#fbe041"/><stop offset="1" style="stop-color:#ffd800"/></linearGradient><path d="m177.6 144.3 1.3 2.8 3 .4-2.1 2.2.5 3-2.7-1.4-2.8 1.4.6-3-2.3-2.2 3.1-.4z" style="fill:url(#n)"/><path d="m177.6 144.3 1.4 2.8 3 .3.1.2-2.3 2.2v-.1l.5 3-2.8-1.3h.1l-2.7 1.5a.1.1 0 0 1-.2-.1v-.1l.5-3v.1l-2.2-2.1v-.3h.1l3-.4zm0 0-1.3 2.8-3.1.6v-.3l2.3 2.2v.1l-.5 3-.2-.1 2.7-1.4h.1l2.7 1.5-.6-3 2.2-2.3v.3l-3-.5z"/><linearGradient id="o" x1="165.2" x2="189.6" y1="42.5" y2="42.5" gradientUnits="userSpaceOnUse"><stop offset="0" style="stop-color:#fffbce"/><stop offset=".2" style="stop-color:#fd0"/><stop offset=".4" style="stop-color:#ffc300"/><stop offset=".8" style="stop-color:#ff8000"/><stop offset="1" style="stop-color:#f50"/></linearGradient><path d="M189.6 54.5c-4.4-13.5-9.2-24-11.6-24h-.9c-2.8 0-7.6 10.5-12 24.1a42 42 0 0 1 24.5 0" style="fill:url(#o)"/><g style="opacity:.7"><path d="M187.8 52.8c0 .8-1 .9-1.1.2 0-.9 1-1 1.1-.2m0 0c-.1-.3-.8-.3-.8 0 0 .6.8.6.8 0" style="fill:#ba1a3f"/></g><path d="M187.2 53c.5.2.2-.3.3-.3q.4.2 0 .5-.3 0-.3-.2c.2.1-.1 0 0 0" style="fill:#fff"/><g style="opacity:.7"><path d="M185.4 52.2c0 .7-1 .8-1 .1-.1-.8 1-1 1-.1m0 0c-.1-.5-.6-.2-.8 0 0 .6.9.5.8 0" style="fill:#ba1a3f"/></g><path d="M184.8 52.4c.5.2.2-.4.3-.4.3 0 .2.5 0 .5-.2.2-.3-.1-.3-.1.2 0-.1-.1 0 0" style="fill:#fff"/><g style="opacity:.7"><path d="M182.8 51.7c0 .8-1 .9-1.1.2-.2-.9 1-1 1-.2m0 0c0-.4-.7-.3-.7.1s.8.5.7 0" style="fill:#ba1a3f"/></g><path d="M182.2 51.9c.5.2.2-.3.3-.3q.3.2 0 .5-.3 0-.3-.2c.2.1-.2 0 0 0" style="fill:#fff"/><g style="opacity:.7"><path d="M180 51.4a.6.6 0 0 1-1.2.2c-.1-.9 1.1-1 1.2-.2m0 0c-.2-.4-.8-.3-.9.1s.8.5.8 0" style="fill:#ba1a3f"/></g><path d="M179.3 51.6c.6.2.3-.3.4-.3q.2.2 0 .5-.4 0-.4-.2c.3.1-.1 0 0 0" style="fill:#fff"/><g style="opacity:.7"><path d="M177 51.5c0 .8-1 .9-1.2.1s1.1-1 1.2 0m0 0c-.2-.5-.9-.4-.9 0s.9.5.8 0" style="fill:#ba1a3f"/></g><path d="M176.3 51.7c.6.2.3-.4.4-.4s.1.5 0 .6q-.4 0-.4-.2c.3 0-.1-.1 0 0" style="fill:#fff"/><g style="opacity:.7"><path d="M173.9 51.7c0 .8-1 .9-1.2.1s1.1-1 1.2 0m0 0c-.2-.5-.9-.4-.9 0s.9.5.8 0" style="fill:#ba1a3f"/></g><path d="M173.2 51.9c.6.2.3-.3.4-.4.2 0 .1.5 0 .6q-.4 0-.4-.2c.3.1-.1 0 0 0" style="fill:#fff"/><g style="opacity:.7"><path d="M171 52a.6.6 0 0 1-1.2.1c-.1-.8 1.2-1 1.2 0m0 0c-.2-.5-.8-.4-.9 0s1 .4.9 0" style="fill:#ba1a3f"/></g><path d="M170.3 52.2c.6.2.3-.3.4-.4.2 0 .2.5 0 .6q-.4 0-.4-.2c.3.1-.1 0 0 0" style="fill:#fff"/><g style="opacity:.7"><path d="M168.3 52.5c0 .8-1 1-1.2.2 0-1 1.1-1 1.2-.2m0 0c-.2-.3-.8-.3-.9 0 0 .7.9.6.8 0" style="fill:#ba1a3f"/></g><path d="M167.6 52.7c.6.3.3-.3.4-.3q.2.2 0 .5-.4 0-.4-.2c.3.1-.1 0 0 0" style="fill:#fff"/><linearGradient id="p" x1="162.1" x2="192.9" y1="165.6" y2="165.6" gradientUnits="userSpaceOnUse"><stop offset="0" style="stop-color:#fffbce"/><stop offset=".2" style="stop-color:#fd0"/><stop offset=".4" style="stop-color:#ffc300"/><stop offset=".8" style="stop-color:#ff8000"/><stop offset="1" style="stop-color:#f50"/></linearGradient><path d="M162 155.5c1.7 8.1 3.2 14.1 4 17 3.9 2 7.3 3.2 12.4 3.2 4.3 0 7-.8 10.4-2.3.8-2.7 2.4-9.2 4-17.8a60 60 0 0 1-30.7 0" style="fill:url(#p)"/><g style="opacity:.7"><path d="M163.5 157.7c0-.9 1.2-1 1.4-.2 0 1-1.3 1.2-1.4.2m0 0c.2.4 1 .4 1 0 0-.7-1-.6-1 0" style="fill:#ba1a3f"/></g><path d="M164.3 157.5c-.7-.3-.3.4-.4.4-.3 0-.2-.5 0-.6.2-.2.4.2.4.2-.3-.1.1 0 0 0" style="fill:#fff"/><g style="opacity:.7"><path d="M166.4 158.4c0-.9 1.2-1 1.4-.2 0 1-1.3 1.3-1.4.2m0 0c.2.6.8.2 1-.1 0-.7-1-.5-1 .1" style="fill:#ba1a3f"/></g><path d="M167.2 158.2c-.7-.3-.3.4-.4.4-.3 0-.2-.5 0-.6.2-.2.4.2.4.2-.3-.1.1 0 0 0" style="fill:#fff"/><g style="opacity:.7"><path d="M169.6 159c0-1 1.2-1.1 1.4-.3.2 1-1.3 1.3-1.4.2m0 0c.2.5 1 .3 1-.1 0-.6-1-.6-1 .1" style="fill:#ba1a3f"/></g><path d="M170.4 158.7c-.7-.3-.3.4-.4.4-.3 0-.2-.5 0-.6.2-.2.4.2.4.2-.3-.1.2 0 0 0" style="fill:#fff"/><g style="opacity:.7"><path d="M173 159.2c0-1 1.2-1 1.4-.2.2 1-1.3 1.2-1.3.2m0 0c.1.5 1 .3 1-.2-.1-.5-1-.5-1 .2" style="fill:#ba1a3f"/></g><path d="M173.8 159c-.6-.3-.3.4-.4.4-.3 0-.2-.5 0-.6.3-.2.4.2.4.2-.3-.2.2 0 0 0" style="fill:#fff"/><g style="opacity:.7"><path d="M179.5 159c0-1 1.2-1 1.4-.2.2 1-1.4 1.3-1.4.2m0 0c.2.5 1 .4 1-.1s-1-.6-1 .1" style="fill:#ba1a3f"/></g><path d="M180.3 158.8c-.7-.3-.3.4-.5.4s-.2-.5 0-.6c.3-.2.5.2.5.2-.3-.1.1 0 0 0" style="fill:#fff"/><g style="opacity:.7"><path d="M183.2 158.7c0-1 1.2-1.1 1.4-.2s-1.3 1.3-1.4.2m0 0c.2.5 1 .3 1-.2s-1-.5-1 .2" style="fill:#ba1a3f"/></g><path d="M184 158.5c-.7-.3-.3.4-.4.4q-.4-.2 0-.7c.3-.1.4.3.4.3-.3-.2.2 0 0 0" style="fill:#fff"/><g style="opacity:.7"><path d="M186.7 158.2c0-.9 1.2-1 1.4-.1s-1.3 1.3-1.4.1m0 0c.2.5 1 .4 1-.1s-1-.5-1 .1" style="fill:#ba1a3f"/></g><path d="M187.5 158c-.7-.3-.3.4-.4.4-.3 0-.3-.5 0-.6.2-.2.4.2.4.2-.3-.1.2.1 0 0" style="fill:#fff"/><g style="opacity:.7"><path d="M190 157.5c-.1-1 1.2-1 1.4-.1 0 1-1.4 1.2-1.5.1m.1 0c.1.5 1 .5 1 0 0-.7-1-.6-1 0" style="fill:#ba1a3f"/></g><path d="M190.7 157.3c-.6-.3-.3.4-.4.4-.3 0-.2-.5 0-.6.3-.2.4.2.4.2-.3-.1.2.1 0 0" style="fill:#fff"/><path d="M178 30.4h-1.2v.1l-.4.1-.9.7-1.4 1.8-2.2 4a95 95 0 0 0-6.3 17.4l-2.5 8.8-2.3 9-1.9 9-1.4 9q-.6 4.5-.8 9.2v4.6l.1 4.6.2 4.6.3 4.6.1 1.1.1 1.2.2 2.3.2 2.3.3 2.2 1 9.2.7 4.5.8 4.6.8 4.5.8 4.5 1 4.6 1 4.5q1 4.5 2.2 8.9l-.3-.3 1.3.7 1.4.6 1.3.5 1.4.5.7.2.7.2h.3l.4.1.7.1 1.5.2h.7l.7.1h3.7l.3-.1h.4l1.4-.3.7-.2.7-.1 1.4-.5 1.4-.5 1.3-.5-.2.3 2.2-9 1.8-9 .9-4.6.8-4.5 1.4-9.1.3-2.3.3-2.3q.4-2.3.6-4.6l.5-4.6.4-4.6q.5-4.5.6-9.2l.1-2.3v-2.3l.1-2.3v-2.3q0-4.5-.7-9.2a147 147 0 0 0-3.4-18.1l-2.3-9-2.5-8.8-2.9-8.8a109 109 0 0 0-5.5-12.7l-1.3-2-.8-.8zm0 0q.6.1 1 .5l.8.9q.8.9 1.3 1.9l2.2 4 3.6 8.6 3.2 8.7 2.8 8.8 2.3 9 2 9 1.5 9.2a86 86 0 0 1 .7 11.6v2.3l-.1 2.3-.1 2.3-.6 9.3-.4 4.6-.5 4.6-.6 4.6-.3 2.3-.3 2.3-1.4 9.1-.9 4.6-.8 4.6-1.9 9-2.2 9-.3.3-1.4.6-1.4.5-1.4.5-.8.2-.7.1-1.5.3h-.7l-.8.1-1.5.1h-2.3l-.7-.1-1.5-.2-.8-.1-.4-.1h-.3l-.8-.3q-.3 0-.7-.2l-1.4-.5-1.4-.5-1.4-.7-1.3-.7-.2-.2-2.3-9-1-4.5-1-4.6-.8-4.5-.8-4.5-.7-4.6-.7-4.6-1.1-9.2-.3-2.2-.2-2.3-.2-2.4v-1.1l-.1-1.2-.3-4.6-.2-4.6-.1-4.6v-4.6A96 96 0 0 1 158 81l1.9-9 1-4.5 1.3-4.5 2.7-8.8 3.2-8.7a101 101 0 0 1 6-12.5l1.4-1.8 1.2-.8h.9z"/><path d="m192.9 155.6-1.3.3-1.5.4-1 .2-1 .2-2.3.4-1.3.2-1.3.1-1.4.2h-1.4l-3 .2h-2.8l-2.9-.2-1.3-.1q-.7 0-1.3-.2l-2.4-.3-1-.2-1-.2-1.4-.3-1.4-.3.3-1 1.3.4 1.5.4.9.2 1 .2 2.3.4 1.3.2 1.3.1q1.3.2 2.8.3l2.9.1h4.3l1.4-.2h1.3l1.3-.2 2.3-.4 1-.1 1-.2 1.5-.3zM165 54.2l1-.3 1.3-.3.7-.2.8-.1 2-.3 1-.2h1l2.3-.2h4.6l1.1.1 1.1.2q1.2 0 2.1.3l1.9.3.8.2.7.2 2.2.6-1-.2-1.2-.3-.7-.2-.9-.1-1.8-.3-2-.2-1.2-.1h-5.7q-1.2 0-2.2.3l-1 .1-1 .2-1.9.4-.8.2-.7.2-1.2.3-1 .3z"/><linearGradient id="q" x1="166.8" x2="170.3" y1="40" y2="174.3" gradientUnits="userSpaceOnUse"><stop offset=".5" style="stop-color:#fff"/><stop offset=".9" style="stop-color:#000"/></linearGradient><path d="M176 31.8s-6.4 21.9-8.8 65.1c-2 35.4 8.2 78.5 8.2 78.5L169 173s-12-44.4-9.4-76.4c2.8-36 15.9-64.5 16.5-64.8" style="opacity:.3;fill:url(#q)"/><linearGradient id="r" x1="175.9" x2="166.5" y1="53.4" y2="142.6" gradientUnits="userSpaceOnUse"><stop offset=".2" style="stop-color:#fff"/><stop offset=".9" style="stop-color:#000"/></linearGradient><path d="M176 31.8s-9.8 22.8-12.2 66c-2 35.4 9.4 76.5 9.4 76.5l-2.6-.9s-11.7-44.8-9.2-76.8c2.8-36 14-64.5 14.6-64.8" style="fill:url(#r)"/><linearGradient id="s" x1="156.2" x2="198.9" y1="103.1" y2="103.1" gradientUnits="userSpaceOnUse"><stop offset=".2" style="stop-color:#fff"/><stop offset=".7" style="stop-color:#737171"/><stop offset=".8" style="stop-color:#737171"/><stop offset=".9" style="stop-color:#cfcece"/></linearGradient><path d="M178 30.4h-.9q-.3 0-.7.3c.9-.5 3.2.6 5.5 15.1.2 1.4.8 3.7.3 5-.7 2-9 1.3-11.3 2q-.7.1-1.8.5 2.3 0 4.2.2c2.4.2 5.3.3 7.3 1.8 2.1 1.7 3.3 4.4 4 6.9.6 1.6 2.6 7.7.8 8.7-1.2.7-4-.7-5.3-.8q-3.4-.7-6.6.6a10 10 0 0 0-5.8 8.9c0 3.5 1.7 7.6 5.3 9.4s8 1.5 11.7.4c.8-.3 1.3.5 1.2 1.1l.3.5c2.8 10.7 2.9 21.8 2.1 32.8-.7 10.7-1 21.7-3.7 32.2-.3 1.2-5.5 1-6.5 1q-4.5-.2-9-.5l-2.6-.2c2.3 1.2 4 1.3 5.1 1.5 3.4.4 4 .2 3.6 1.7-.4 1.3-2 4.1-3.3 8.3-.8 2.6 0 6.5-1 6-.6-.2-3.1-.8-3.7-.8 3.4 1.7 6.6 2.7 11.2 2.7 4.3 0 7-.8 10.4-2.3 2.2-7.4 10.1-42.6 10.1-72.2 0-23.4-15.7-70.8-21-70.8" style="fill:url(#s)"/><linearGradient id="t" x1="168" x2="183.2" y1="175.3" y2="178.2" gradientUnits="userSpaceOnUse"><stop offset=".3" style="stop-color:#9c79b6"/><stop offset=".3" style="stop-color:#9a73ba"/><stop offset=".4" style="stop-color:#8d4cd2"/><stop offset=".5" style="stop-color:#8535e1"/><stop offset=".5" style="stop-color:#822ce7"/><stop offset=".6" style="stop-color:#7429cd"/><stop offset=".8" style="stop-color:#52218a"/><stop offset="1" style="stop-color:#331a4f"/></linearGradient><path d="M179 161q-1-2.8-1.9-2.6c-.4 0-1.3.6-2 2.6-2.2 6.7-2.7 9.3-2.5 11.8.2 2.3 3.2 17 4 22.8h1c.8-5.8 3.8-20.3 4-22.8s-.2-5.1-2.5-11.8" style="fill:url(#t)"/><path d="m179 161-.7-1.5-.5-.7-.3-.2-.4-.1q-.2 0-.5.2l-.3.4-.6 1-.4 1.2-.3 1.1q-.8 2.4-1.3 4.7l-.5 2.3a14 14 0 0 0 0 3.5l.1 1.2.4 2.4.9 4.7.8 4.8.8 4.8.3 2.4.3 2.4-.2-.2h1l-.1.2.3-2.2.4-2.1.4-2.2.3-2.2.7-4.4.3-2.1.4-2.2.8-4.4.2-1v-3.2q-.3-2.3-1-4.3l-.6-2.2zm.1 0 1.5 4.2.6 2.1a25 25 0 0 1 .9 4.4v1.2l-.2 1q0 1.2-.3 2.3l-.4 2.1-.5 2.2-.4 2.2-1 4.3-.8 4.3-.4 2.2-.3 2.2-.1.1h-1.1l-.2-.1-.4-2.4-.5-2.4-1-4.7-.9-4.8-.9-4.7-.4-2.4-.2-1.3v-1.2q0-1.3.2-2.5l.6-2.4 1.6-4.6.4-1.1.5-1.2.7-1 .4-.5.6-.2.5.1.3.3.5.7q.5.7.7 1.6"/><linearGradient id="u" x1="168" x2="183.2" y1="175.3" y2="178.2" gradientUnits="userSpaceOnUse"><stop offset=".1" style="stop-color:#fff"/><stop offset=".6" style="stop-color:#737171"/><stop offset="1" style="stop-color:#737171"/></linearGradient><path d="M179 161q-1-2.8-1.9-2.6-.2 0-.6.3.6-.3.8.2c.5 1.3.8 2.9 1 3.8q.7 4.2.1 9.3c-.5 3.6-1 12-1.5 17.4-.1 1.3-2.5-9.2-3.6-12.2 1 5.5 2.8 14.3 3.3 18.4h1c.8-5.8 3.8-20.3 4-22.8s-.2-5.1-2.5-11.8" style="opacity:.7;fill:url(#u)"/><radialGradient id="v" cx="177.1" cy="167.8" r="21.9" fx="173.3" fy="168" gradientUnits="userSpaceOnUse"><stop offset=".5" style="stop-color:#fff"/><stop offset="1" style="stop-color:#000"/></radialGradient><path d="M176.7 159.7c-.3 2.8-1 4.5-.8 11.8.3 7.4 1.3 20.3 1.3 20.3l1.2-19.8c.3-3.9-.4-9.4-.8-12.1s-.9-.2-.9-.2" style="opacity:.4;fill:url(#v)"/><radialGradient id="w" cx="177.3" cy="163.8" r="12.1" fx="175.2" fy="163.9" gradientUnits="userSpaceOnUse"><stop offset=".5" style="stop-color:#fff"/><stop offset="1" style="stop-color:#000"/></radialGradient><path d="M177 159.7c-.3 1.9-.3 7.5-.4 9.2s.4 5.4.5 6.8.4 2.1.5 0q.3-3.2.3-6.8c0-3.6-.4-8.2-.5-9.2-.2-1-.2-1.5-.4 0" style="opacity:.7;fill:url(#w)"/><linearGradient id="x" x1="168.1" x2="187" y1="79.5" y2="79.5" gradientUnits="userSpaceOnUse"><stop offset="0" style="stop-color:#fd0"/><stop offset=".2" style="stop-color:#ffc300"/><stop offset=".7" style="stop-color:#ff8000"/><stop offset="1" style="stop-color:#f50"/></linearGradient><path d="M177.6 70a9.4 9.4 0 1 0 0 18.9 9.4 9.4 0 0 0 0-18.9m0 16.7a7.3 7.3 0 0 1 0-14.5 7.3 7.3 0 0 1 0 14.5" style="fill:url(#x)"/><path d="M177.6 70h-.7l-.4.1h-.4l-.5.2-.5.1a9 9 0 0 0-2.6 1.3 10 10 0 0 0-2.6 2.7 10 10 0 0 0-1.4 4v2.4a9 9 0 0 0 2 4.6l1.9 1.8q1.2.8 2.5 1.2t2.7.3q.7 0 1.3-.2.7 0 1.3-.3l2.4-1.1 2-1.8a9 9 0 0 0 2-4.5v-2.4l-.2-1.1-.1-.5-.2-.6q-.4-1-1-1.8a9 9 0 0 0-2.5-2.7 9 9 0 0 0-2.5-1.3l-.6-.1-.5-.1-.4-.1h-1m0 0h1.4l.5.2h.6q1.2.4 2.7 1.2a10 10 0 0 1 2.9 2.6 10 10 0 0 1 1.6 4.3V81a9 9 0 0 1-2.2 4.8l-2.1 1.9-2.6 1.1-1.4.3h-1.4l-2.8-.4-2.5-1.2-2-1.8q-1-1-1.5-2.3t-.8-2.5l-.2-1.2v-1.3q.5-2.4 1.7-4.3a10 10 0 0 1 2.8-2.6q1.6-.8 2.7-1.1l.6-.1.5-.1h.4l.4-.1z"/><path d="M177.6 86.8h-.6l-.6-.1h-.4l-.4-.2q-.9-.2-2.1-.8a7 7 0 0 1-2.2-2 7 7 0 0 1-1.3-3.4v-1l.1-1a7 7 0 0 1 1.8-3.6l1.6-1.4 2-1 2-.3 2.2.2a8 8 0 0 1 3.7 2.3l1.2 1.8.5 2 .1 1v1a7 7 0 0 1-1.3 3.4 8 8 0 0 1-2.3 2q-1.2.6-2 .8l-.5.1h-.4l-.6.1zm0-.1h.5l.6-.1h.4l.4-.2 2-1a7 7 0 0 0 1.9-2 8 8 0 0 0 1-3.2 7 7 0 0 0-.5-3.6l-1-1.6-1.5-1.4-1.8-.9-2-.3-2.1.2-1.9.9-1.5 1.3-1 1.8-.5 1.8v1.8a8 8 0 0 0 1.1 3.1 7 7 0 0 0 2 2.1 6 6 0 0 0 2.4 1.1h.3l.7.2z"/><radialGradient id="y" cx="175.6" cy="76.8" r="10" gradientUnits="userSpaceOnUse"><stop offset=".1" style="stop-color:#95e6ff"/><stop offset=".2" style="stop-color:#8ce1fc"/><stop offset=".3" style="stop-color:#75d3f5"/><stop offset=".4" style="stop-color:#4ebce9"/><stop offset=".5" style="stop-color:#199dd8"/><stop offset=".5" style="stop-color:#008ed0"/><stop offset=".7" style="stop-color:#007dbb"/><stop offset=".9" style="stop-color:#005085"/><stop offset="1" style="stop-color:#004173"/></radialGradient><path d="M177.6 72.2a7.3 7.3 0 1 0 7.2 7.2 7.3 7.3 0 0 0-7.2-7.2" style="fill:url(#y);stroke:#000;stroke-width:.1616;stroke-linecap:round;stroke-linejoin:round;stroke-miterlimit:10"/><path d="M175.9 76.9c-.8 1-2.1 1.5-2.8 1s-.6-1.9.2-3q1.6-1.7 2.8-1c.7.5.6 1.8-.2 3m-2.4 2.7q-.1.8-1 .8a1 1 0 0 1-.6-1 1 1 0 0 1 .9-.7q.7.1.7 1" style="fill:#fff"/><path d="M178 86s-6.9 0-6.6-7c.2-6.2 7.3-7.1 9.7-4.8 0 0-4.7-1.6-7.1 2.6-2.5 4.2 0 9 4 9.2" style="opacity:.5;fill:#fff"/><radialGradient id="z" cx="171.2" cy="74.2" r="11.7" gradientUnits="userSpaceOnUse"><stop offset=".7" style="stop-color:#fff"/><stop offset="1" style="stop-color:#000"/></radialGradient><path d="M172.1 85.6s-4.3-3.1-2-9c2.5-5.9 9.3-6.2 13-3.2 0 0-4.1-5.2-10.6-1.2-6.1 4-3.7 13-.4 13.4" style="fill:url(#z)"/><radialGradient id="A" cx="188.9" cy="100.4" r="73.7" fx="195.4" fy="65.9" gradientUnits="userSpaceOnUse"><stop offset="0" style="stop-color:#a097ff"/><stop offset=".8" style="stop-color:#000"/></radialGradient><path d="M178.8 31.8s13.7 22.1 16.2 65.4c2 35.3-11 77.3-11 77.3l3.4-1.1s11.7-42.6 10-74.7a152 152 0 0 0-18.6-67" style="opacity:.4;fill:url(#A)"/><linearGradient id="B" x1="175.2" x2="180.6" y1="145.9" y2="153.5" gradientUnits="userSpaceOnUse"><stop offset="0" style="stop-color:#fff"/><stop offset=".6" style="stop-color:#737171"/><stop offset="1" style="stop-color:#737171"/></linearGradient><path d="M180.3 153.5h-.2l-2.5-1.3-2.5 1.3a.5.5 0 0 1-.7-.5l.5-2.8-2-2a.5.5 0 0 1 .3-.7l2.8-.4 1.2-2.6a.5.5 0 0 1 .8 0l1.3 2.6 2.8.4a.5.5 0 0 1 .3.8l-2 2 .4 2.7a1 1 0 0 1-.5.5m-2.7-2.6h.2l2 1-.4-2.1.2-.5 1.5-1.5-2.1-.3-.4-.3-1-2-1 2-.3.3-2.2.3 1.6 1.5v.5l-.3 2.1 2-1z" style="fill:url(#B)"/></g></svg>